<?xml version="1.0" encoding="UTF-8"?>
<svg width="1219px" height="434px" viewBox="0 0 1219 434" version="1.1" xmlns="http://www.w3.org/2000/svg" xmlns:xlink="http://www.w3.org/1999/xlink">
    <!-- Generator: Sketch 52.1 (67048) - http://www.bohemiancoding.com/sketch -->
    <title>Group 5</title>
    <desc>Created with Sketch.</desc>
    <g id="Page-1" stroke="none" stroke-width="1" fill="none" fill-rule="evenodd">
        <g id="Innovation-site-NEW" transform="translate(-358.000000, -5404.000000)">
            <g id="Group-5" transform="translate(358.000000, 5404.000000)">
                <g id="Group-7" transform="translate(397.000000, 0.000000)">
                    <circle id="Oval-Copy-7" fill="#61B815" fill-rule="nonzero" opacity="0.5" cx="217.5" cy="217" r="217"></circle>
                    <path d="M148.942,222.452 L148.942,232 L141.814,232 L141.814,202.652 L151.89,202.652 C158.842,202.652 162.802,206.172 162.802,212.288 C162.802,218.448 158.71,222.452 152.33,222.452 L148.942,222.452 Z M148.942,216.6 L150.922,216.6 C153.87,216.6 155.586,215.104 155.586,212.552 C155.586,210.132 153.914,208.504 151.406,208.504 L148.942,208.504 L148.942,216.6 Z M176.486,210.836 C183.086,210.836 187.882,215.544 187.882,222.056 C187.882,228.084 182.822,232.792 176.398,232.792 C169.798,232.792 165.002,228.216 165.002,221.836 C165.002,215.368 169.71,210.836 176.486,210.836 Z M176.486,216.776 C173.582,216.776 171.69,218.8 171.69,221.836 C171.69,224.828 173.626,226.896 176.442,226.896 C179.214,226.896 181.15,224.872 181.15,221.968 C181.15,218.712 179.39,216.776 176.486,216.776 Z M198.354,232 L191.666,232 L191.666,202.652 L198.354,202.652 L198.354,232 Z M210.014,211.628 L210.014,232 L203.326,232 L203.326,211.628 L210.014,211.628 Z M206.714,202.124 C208.782,202.124 210.234,203.62 210.234,205.732 C210.234,207.756 208.694,209.252 206.67,209.252 C204.602,209.252 203.106,207.756 203.106,205.688 C203.106,203.62 204.602,202.124 206.714,202.124 Z M221.938,217.04 L221.938,225.136 C221.938,226.06 222.422,226.456 223.566,226.456 L224.27,226.456 L224.27,232 L219.122,232 C216.35,232 215.25,230.768 215.25,227.732 L215.25,217.04 L213.182,217.04 L213.182,211.496 L215.25,211.496 L215.25,206.48 L221.938,206.48 L221.938,211.496 L224.27,211.496 L224.27,217.04 L221.938,217.04 Z M234.654,211.628 L234.654,232 L227.966,232 L227.966,211.628 L234.654,211.628 Z M231.354,202.124 C233.422,202.124 234.874,203.62 234.874,205.732 C234.874,207.756 233.334,209.252 231.31,209.252 C229.242,209.252 227.746,207.756 227.746,205.688 C227.746,203.62 229.242,202.124 231.354,202.124 Z M253.574,225.444 L257.578,229.756 C255.158,231.868 252.694,232.792 249.614,232.792 C246.578,232.792 243.586,231.604 241.474,229.58 C239.45,227.688 238.394,225.004 238.394,221.924 C238.394,215.456 243.058,210.836 249.526,210.836 C252.65,210.836 255.158,211.892 258.018,214.356 L253.574,218.36 C252.43,217.216 251.286,216.732 249.834,216.732 C247.194,216.732 245.126,218.888 245.126,221.704 C245.126,224.652 247.282,226.896 250.186,226.896 C251.374,226.896 252.21,226.544 253.574,225.444 Z M276.102,213.828 L276.102,211.628 L282.79,211.628 L282.79,232 L276.102,232 L276.102,229.712 C274.254,231.824 272.098,232.792 269.194,232.792 C263.386,232.792 259.206,228.348 259.206,222.1 C259.206,215.588 263.65,210.836 269.766,210.836 C272.362,210.836 274.122,211.672 276.102,213.828 Z M271.218,216.38 C268.358,216.38 266.334,218.712 266.334,221.968 C266.334,225.092 268.446,227.512 271.174,227.512 C273.946,227.512 276.19,224.96 276.19,221.88 C276.19,218.624 274.122,216.38 271.218,216.38 Z M294.494,232 L287.806,232 L287.806,202.652 L294.494,202.652 L294.494,232 Z" id="Political" fill="#FFFFFF"></path>
                </g>
                <g id="Group-6">
                    <circle id="Oval" fill="#016FAD" fill-rule="nonzero" opacity="0.5" cx="217" cy="217" r="217"></circle>
                    <path d="M55.994,223.112 L62.99,223.112 C62.946,223.288 62.946,223.508 62.946,223.596 C62.946,225.048 64.53,226.28 66.422,226.28 C68.138,226.28 69.458,225.268 69.458,223.948 C69.458,222.584 68.666,221.968 65.234,220.736 C58.81,218.448 56.302,215.764 56.302,211.276 C56.302,205.776 60.35,202.08 66.466,202.08 C70.426,202.08 73.682,203.752 75.398,206.612 C76.234,207.976 76.63,209.252 76.938,211.32 L69.678,211.32 C69.458,209.296 68.446,208.372 66.422,208.372 C64.662,208.372 63.518,209.296 63.518,210.704 C63.518,211.584 63.958,212.288 64.882,212.816 C65.41,213.168 65.982,213.432 68.226,214.268 C71.57,215.544 73.154,216.38 74.474,217.568 C76.102,219.064 76.938,221.088 76.938,223.464 C76.938,228.92 72.714,232.572 66.422,232.572 C59.998,232.572 55.994,228.92 55.994,223.112 Z M87.85,217.04 L87.85,225.136 C87.85,226.06 88.334,226.456 89.478,226.456 L90.182,226.456 L90.182,232 L85.034,232 C82.262,232 81.162,230.768 81.162,227.732 L81.162,217.04 L79.094,217.04 L79.094,211.496 L81.162,211.496 L81.162,206.48 L87.85,206.48 L87.85,211.496 L90.182,211.496 L90.182,217.04 L87.85,217.04 Z M93.878,211.628 L100.566,211.628 L100.566,214.4 C101.094,212.904 101.49,212.288 102.326,211.716 C103.118,211.144 104.218,210.836 105.274,210.836 L105.934,210.836 L105.934,217.7 C105.45,217.656 104.966,217.612 104.702,217.612 C103.206,217.612 101.93,218.228 101.226,219.24 C100.698,219.944 100.566,220.692 100.566,222.408 L100.566,232 L93.878,232 L93.878,211.628 Z M124.546,213.828 L124.546,211.628 L131.234,211.628 L131.234,232 L124.546,232 L124.546,229.712 C122.698,231.824 120.542,232.792 117.638,232.792 C111.83,232.792 107.65,228.348 107.65,222.1 C107.65,215.588 112.094,210.836 118.21,210.836 C120.806,210.836 122.566,211.672 124.546,213.828 Z M119.662,216.38 C116.802,216.38 114.778,218.712 114.778,221.968 C114.778,225.092 116.89,227.512 119.618,227.512 C122.39,227.512 124.634,224.96 124.634,221.88 C124.634,218.624 122.566,216.38 119.662,216.38 Z M143.202,217.04 L143.202,225.136 C143.202,226.06 143.686,226.456 144.83,226.456 L145.534,226.456 L145.534,232 L140.386,232 C137.614,232 136.514,230.768 136.514,227.732 L136.514,217.04 L134.446,217.04 L134.446,211.496 L136.514,211.496 L136.514,206.48 L143.202,206.48 L143.202,211.496 L145.534,211.496 L145.534,217.04 L143.202,217.04 Z M170.35,223.244 L154.906,223.244 C155.39,225.532 157.15,226.896 159.57,226.896 C161.374,226.896 162.87,226.104 163.574,224.652 L169.734,226.236 C168.722,228.26 167.974,229.184 166.434,230.372 C164.366,232 162.078,232.792 159.438,232.792 C152.794,232.792 147.998,228.172 147.998,221.704 C147.998,215.236 152.486,210.836 159.086,210.836 C165.818,210.836 170.35,215.456 170.35,222.408 L170.35,223.244 Z M154.862,219.68 L163.53,219.68 C163.09,217.568 161.506,216.38 159.13,216.38 C156.842,216.38 155.302,217.568 154.862,219.68 Z M188.786,213.696 L188.786,211.628 L195.298,211.628 L195.298,229.756 C195.298,234.244 194.55,236.752 192.57,238.732 C190.502,240.8 187.29,241.988 183.682,241.988 C179.634,241.988 176.202,240.624 173.166,237.808 L177.214,233.672 C178.886,235.52 180.954,236.444 183.33,236.444 C186.762,236.444 188.786,234.332 188.786,230.768 L188.786,229.756 C186.982,231.78 184.65,232.792 181.746,232.792 C178.93,232.792 176.158,231.516 174.31,229.316 C172.814,227.512 171.978,224.916 171.978,222.012 C171.978,215.324 176.202,210.836 182.494,210.836 C185.222,210.836 187.158,211.716 188.786,213.696 Z M183.946,216.732 C181.086,216.732 179.106,218.756 179.106,221.704 C179.106,224.74 181.13,226.896 184.034,226.896 C185.53,226.896 186.938,226.28 187.818,225.312 C188.39,224.652 188.698,223.64 188.698,222.364 C188.698,218.844 186.938,216.732 183.946,216.732 Z M207.002,211.628 L207.002,232 L200.314,232 L200.314,211.628 L207.002,211.628 Z M203.702,202.124 C205.77,202.124 207.222,203.62 207.222,205.732 C207.222,207.756 205.682,209.252 203.658,209.252 C201.59,209.252 200.094,207.756 200.094,205.688 C200.094,203.62 201.59,202.124 203.702,202.124 Z M225.922,225.444 L229.926,229.756 C227.506,231.868 225.042,232.792 221.962,232.792 C218.926,232.792 215.934,231.604 213.822,229.58 C211.798,227.688 210.742,225.004 210.742,221.924 C210.742,215.456 215.406,210.836 221.874,210.836 C224.998,210.836 227.506,211.892 230.366,214.356 L225.922,218.36 C224.778,217.216 223.634,216.732 222.182,216.732 C219.542,216.732 217.474,218.888 217.474,221.704 C217.474,224.652 219.63,226.896 222.534,226.896 C223.722,226.896 224.558,226.544 225.922,225.444 Z M246.25,232 L246.25,202.652 L254.83,202.652 C259.89,202.652 263.014,203.576 265.698,205.864 C268.822,208.504 270.494,212.464 270.494,217.04 C270.494,221.616 268.778,225.928 265.83,228.612 C263.41,230.812 259.846,232 255.622,232 L246.25,232 Z M253.378,208.372 L253.378,226.148 L254.478,226.148 C259.67,226.148 263.278,222.54 263.278,217.26 C263.278,214.664 262.222,211.98 260.594,210.484 C259.186,209.208 256.898,208.372 254.742,208.372 L253.378,208.372 Z M295.618,223.244 L280.174,223.244 C280.658,225.532 282.418,226.896 284.838,226.896 C286.642,226.896 288.138,226.104 288.842,224.652 L295.002,226.236 C293.99,228.26 293.242,229.184 291.702,230.372 C289.634,232 287.346,232.792 284.706,232.792 C278.062,232.792 273.266,228.172 273.266,221.704 C273.266,215.236 277.754,210.836 284.354,210.836 C291.086,210.836 295.618,215.456 295.618,222.408 L295.618,223.244 Z M280.13,219.68 L288.798,219.68 C288.358,217.568 286.774,216.38 284.398,216.38 C282.11,216.38 280.57,217.568 280.13,219.68 Z M313.878,217.656 L307.674,217.656 L307.674,217.26 C307.674,216.336 306.838,215.632 305.738,215.632 C304.814,215.632 304.154,216.204 304.154,216.996 C304.154,217.832 304.77,218.316 306.486,218.8 C312.206,220.428 314.274,222.32 314.274,225.884 C314.274,230.02 310.974,232.792 306.002,232.792 C301.03,232.792 297.906,230.196 297.774,225.928 L304.11,225.928 C304.374,227.424 304.858,227.996 306.002,227.996 C306.882,227.996 307.542,227.38 307.542,226.544 C307.542,225.62 306.882,225.136 304.154,224.256 C299.71,222.848 297.774,220.78 297.774,217.568 C297.774,213.52 301.074,210.836 306.002,210.836 C310.842,210.836 313.834,213.388 313.878,217.656 Z M324.57,211.628 L324.57,232 L317.882,232 L317.882,211.628 L324.57,211.628 Z M321.27,202.124 C323.338,202.124 324.79,203.62 324.79,205.732 C324.79,207.756 323.25,209.252 321.226,209.252 C319.158,209.252 317.662,207.756 317.662,205.688 C317.662,203.62 319.158,202.124 321.27,202.124 Z M344.326,213.696 L344.326,211.628 L350.838,211.628 L350.838,229.756 C350.838,234.244 350.09,236.752 348.11,238.732 C346.042,240.8 342.83,241.988 339.222,241.988 C335.174,241.988 331.742,240.624 328.706,237.808 L332.754,233.672 C334.426,235.52 336.494,236.444 338.87,236.444 C342.302,236.444 344.326,234.332 344.326,230.768 L344.326,229.756 C342.522,231.78 340.19,232.792 337.286,232.792 C334.47,232.792 331.698,231.516 329.85,229.316 C328.354,227.512 327.518,224.916 327.518,222.012 C327.518,215.324 331.742,210.836 338.034,210.836 C340.762,210.836 342.698,211.716 344.326,213.696 Z M339.486,216.732 C336.626,216.732 334.646,218.756 334.646,221.704 C334.646,224.74 336.67,226.896 339.574,226.896 C341.07,226.896 342.478,226.28 343.358,225.312 C343.93,224.652 344.238,223.64 344.238,222.364 C344.238,218.844 342.478,216.732 339.486,216.732 Z M355.854,211.628 L362.542,211.628 L362.542,213.916 C363.862,211.672 365.27,210.836 367.734,210.836 C369.758,210.836 371.694,211.584 372.97,212.816 C374.334,214.224 374.818,215.896 374.818,219.504 L374.818,232 L368.13,232 L368.13,219.548 C368.13,217.568 367.074,216.38 365.358,216.38 C363.642,216.38 362.542,217.656 362.542,219.636 L362.542,232 L355.854,232 L355.854,211.628 Z" id="Strategic-Design" fill="#FFFFFF"></path>
                </g>
                <g id="Group-8" transform="translate(785.000000, 0.000000)">
                    <circle id="Oval-Copy-8" fill="#FF8D31" fill-rule="nonzero" opacity="0.5" cx="217" cy="217" r="217"></circle>
                    <path d="M164.342,223.464 L168.566,228.392 C165.046,231.384 161.922,232.572 157.566,232.572 C153.078,232.572 149.514,231.12 146.83,228.128 C144.322,225.356 142.87,221.44 142.87,217.392 C142.87,212.64 144.806,208.196 148.062,205.38 C150.658,203.18 153.826,202.08 157.786,202.08 C160.25,202.08 162.67,202.608 164.738,203.532 C166.234,204.236 167.158,204.896 168.918,206.524 L164.342,211.32 C162.274,209.516 160.294,208.68 158.05,208.68 C153.342,208.68 150.086,212.156 150.086,217.172 C150.086,222.364 153.562,225.972 158.49,225.972 C160.998,225.972 162.802,225.18 164.342,223.464 Z M183.79,211.628 L190.478,211.628 L190.478,224.432 C190.478,227.556 189.774,229.316 188.058,230.724 C186.342,232.088 184.01,232.792 181.106,232.792 C178.07,232.792 175.474,232 173.846,230.548 C172.306,229.228 171.602,227.248 171.602,224.432 L171.602,211.628 L178.29,211.628 L178.29,223.948 C178.29,226.06 179.302,227.248 181.106,227.248 C182.778,227.248 183.79,226.192 183.79,224.432 L183.79,211.628 Z M201.874,232 L195.186,232 L195.186,202.652 L201.874,202.652 L201.874,232 Z M213.798,217.04 L213.798,225.136 C213.798,226.06 214.282,226.456 215.426,226.456 L216.13,226.456 L216.13,232 L210.982,232 C208.21,232 207.11,230.768 207.11,227.732 L207.11,217.04 L205.042,217.04 L205.042,211.496 L207.11,211.496 L207.11,206.48 L213.798,206.48 L213.798,211.496 L216.13,211.496 L216.13,217.04 L213.798,217.04 Z M231.706,211.628 L238.394,211.628 L238.394,224.432 C238.394,227.556 237.69,229.316 235.974,230.724 C234.258,232.088 231.926,232.792 229.022,232.792 C225.986,232.792 223.39,232 221.762,230.548 C220.222,229.228 219.518,227.248 219.518,224.432 L219.518,211.628 L226.206,211.628 L226.206,223.948 C226.206,226.06 227.218,227.248 229.022,227.248 C230.694,227.248 231.706,226.192 231.706,224.432 L231.706,211.628 Z M243.102,211.628 L249.79,211.628 L249.79,214.4 C250.318,212.904 250.714,212.288 251.55,211.716 C252.342,211.144 253.442,210.836 254.498,210.836 L255.158,210.836 L255.158,217.7 C254.674,217.656 254.19,217.612 253.926,217.612 C252.43,217.612 251.154,218.228 250.45,219.24 C249.922,219.944 249.79,220.692 249.79,222.408 L249.79,232 L243.102,232 L243.102,211.628 Z M273.77,213.828 L273.77,211.628 L280.458,211.628 L280.458,232 L273.77,232 L273.77,229.712 C271.922,231.824 269.766,232.792 266.862,232.792 C261.054,232.792 256.874,228.348 256.874,222.1 C256.874,215.588 261.318,210.836 267.434,210.836 C270.03,210.836 271.79,211.672 273.77,213.828 Z M268.886,216.38 C266.026,216.38 264.002,218.712 264.002,221.968 C264.002,225.092 266.114,227.512 268.842,227.512 C271.614,227.512 273.858,224.96 273.858,221.88 C273.858,218.624 271.79,216.38 268.886,216.38 Z M292.162,232 L285.474,232 L285.474,202.652 L292.162,202.652 L292.162,232 Z" id="Cultural" fill="#FFFFFF"></path>
                </g>
            </g>
        </g>
    </g>
</svg>