<?xml version="1.0" encoding="UTF-8"?>
<svg width="1127px" height="880px" viewBox="0 0 1127 880" version="1.1" xmlns="http://www.w3.org/2000/svg" xmlns:xlink="http://www.w3.org/1999/xlink">
    <!-- Generator: Sketch 52.1 (67048) - http://www.bohemiancoding.com/sketch -->
    <title>Group 223</title>
    <desc>Created with Sketch.</desc>
    <g id="Page-1" stroke="none" stroke-width="1" fill="none" fill-rule="evenodd">
        <g id="Innovation-site-NEW" transform="translate(-399.000000, -8250.000000)">
            <g id="Group-223" transform="translate(399.000000, 8250.000000)">
                <ellipse id="Oval" fill="#000000" fill-rule="nonzero" opacity="0.100000001" cx="1032" cy="845" rx="95" ry="28"></ellipse>
                <ellipse id="Oval-Copy-10" fill="#000000" fill-rule="nonzero" opacity="0.100000001" cx="98" cy="848" rx="95" ry="28"></ellipse>
                <ellipse id="Oval-Copy-11" fill="#000000" fill-rule="nonzero" opacity="0.100000001" cx="95" cy="602" rx="95" ry="28"></ellipse>
                <ellipse id="Oval-Copy-9" fill="#000000" fill-rule="nonzero" opacity="0.100000001" cx="1032" cy="642" rx="95" ry="28"></ellipse>
                <path d="M1009,439.998953 C1009,683.003268 812.005362,880 569.001047,880 C325.994638,880 129,683.003268 129,439.998953 C129,196.994638 325.994638,0 569.001047,0 C812.005362,0 1009,196.994638 1009,439.998953" id="Fill-64" fill="#FFFFFF"></path>
                <path d="M735,94.4994135 C735,117.97309 715.97218,137 692.5,137 C669.02782,137 650,117.97309 650,94.4994135 C650,71.0269095 669.02782,52 692.5,52 C715.97218,52 735,71.0269095 735,94.4994135" id="Fill-1" fill="#FDEBA1"></path>
                <g id="Group-33" transform="translate(661.000000, 78.000000)" fill="#231F20">
                    <g id="Group-17" transform="translate(6.000000, 0.000000)">
                        <path d="M10.9830491,5.52243126 C11,5.76555716 11,6.07814761 11,6.18234443 C11,7.72793054 10.6609821,8.80463097 9.83038833,9.8813314 C8.74553113,11.2706223 7.28775426,12 5.57571399,12 C2.35617423,12 0,9.48191027 0,6.02720695 C0,2.51808973 2.33922334,0 5.57571399,0 C7.28775426,0 8.76248202,0.729377713 9.83038833,2.10130246 L8.76248202,2.98813314 C8.32288884,2.48335745 8.11834806,2.27496382 7.81323197,2.06772793 C7.1860489,1.59768452 6.39048695,1.33835022 5.57571399,1.33835022 C3.23762071,1.33835022 1.45664681,3.35166425 1.45664681,6.00868307 C1.45664681,8.63212735 3.23762071,10.6628075 5.54294226,10.6628075 C6.79617834,10.6628075 8.10139716,9.98552822 8.79638381,8.96092619 C9.23710705,8.35311143 9.40661599,7.78002894 9.52527224,6.77279305 L5.59266489,6.77279305 L5.59266489,5.52243126 L10.9830491,5.52243126 Z" id="Fill-3"></path>
                        <polygon id="Fill-5" points="14 12 15 12 15 0 14 0"></polygon>
                        <path d="M18.3304904,8.00828157 C18.3304904,9.69772257 19.4051173,10.8405797 21.0085288,10.8405797 C22.5607676,10.8405797 23.6695096,9.66459627 23.6695096,8.00828157 C23.6695096,6.30227743 22.6119403,5.1605245 21.0255864,5.1605245 C19.4051173,5.1605245 18.3304904,6.30227743 18.3304904,8.00828157 M25,8.02594893 C25,10.2608696 23.2260128,12 20.9744136,12 C18.6375267,12 17,10.3436853 17,7.99171843 C17,5.62429262 18.6375267,4 21.0255864,4 C23.3454158,4 25,5.67398206 25,8.02594893" id="Fill-7"></path>
                        <path d="M28.3131018,7.73451327 C28.3131018,9.59292035 29.3635833,10.8318584 30.9393055,10.8318584 C32.5325357,10.8318584 33.6005252,9.61061947 33.6005252,7.78761062 C33.6005252,5.96460177 32.5150277,4.6560472 30.9906624,4.6560472 C29.4511234,4.6560472 28.3131018,5.94690265 28.3131018,7.73451327 Z M28.3306099,11.8053097 L27,11.8053097 L27,0 L28.3306099,0 L28.3306099,5.04542773 C29.135979,3.92920354 29.9938722,3.45132743 31.1669098,3.45132743 C33.4242778,3.45132743 35,5.22123894 35,7.75339233 C35,10.2477876 33.442953,12 31.2369419,12 C29.9938722,12 29.118471,11.5221239 28.3306099,10.4082596 L28.3306099,11.8053097 Z" id="Fill-8"></path>
                        <path d="M39.0477223,6.03837129 C38.6312364,6.58385093 38.3882863,7.3126294 38.3882863,8.05797101 C38.3882863,9.68226363 39.4989154,10.9068323 40.9566161,10.9068323 C42.4663774,10.9068323 43.6984816,9.56521739 43.6984816,7.92657005 C43.6984816,6.27025535 42.5878525,5.12739821 40.9913232,5.12739821 C40.1236443,5.12739821 39.516269,5.4089717 39.0477223,6.03837129 Z M43.681128,4.18219462 L45,4.18219462 L45,11.8178054 L43.681128,11.8178054 L43.681128,10.3436853 C42.8828633,11.4876467 41.9804772,12 40.7657267,12 C38.5618221,12 37,10.3436853 37,8.02594893 C37,5.6905452 38.5965293,4 40.8004338,4 C42.0151844,4 42.9002169,4.44830918 43.681128,5.442098 L43.681128,4.18219462 Z" id="Fill-9"></path>
                        <polygon id="Fill-10" points="48 12 49 12 49 0 48 0"></polygon>
                    </g>
                    <g id="Group-26" transform="translate(0.000000, 17.000000)">
                        <path d="M10.9830491,5.52243126 C11,5.76555716 11,6.07814761 11,6.18234443 C11,7.72793054 10.6609821,8.80463097 9.83038833,9.8813314 C8.74553113,11.2706223 7.28775426,12 5.57571399,12 C2.35617423,12 0,9.48191027 0,6.02720695 C0,2.51808973 2.33922334,0 5.57571399,0 C7.28775426,0 8.76248202,0.729377713 9.83038833,2.10130246 L8.76248202,2.98813314 C8.32288884,2.48335745 8.11834806,2.27496382 7.81323197,2.06772793 C7.1860489,1.59768452 6.39048695,1.33835022 5.57571399,1.33835022 C3.23762071,1.33835022 1.45664681,3.35166425 1.45664681,6.00868307 C1.45664681,8.63212735 3.23762071,10.6628075 5.54294226,10.6628075 C6.79617834,10.6628075 8.10139716,9.98552822 8.79638381,8.96092619 C9.23710705,8.35311143 9.40661599,7.78002894 9.52527224,6.77279305 L5.59266489,6.77279305 L5.59266489,5.52243126 L10.9830491,5.52243126 Z" id="Fill-11"></path>
                        <path d="M15.0477223,6.03837129 C14.6312364,6.58385093 14.3882863,7.3126294 14.3882863,8.05797101 C14.3882863,9.68226363 15.4989154,10.9068323 16.9566161,10.9068323 C18.4663774,10.9068323 19.6984816,9.56521739 19.6984816,7.92657005 C19.6984816,6.27025535 18.5878525,5.12739821 16.9913232,5.12739821 C16.1236443,5.12739821 15.516269,5.4089717 15.0477223,6.03837129 Z M19.681128,4.18219462 L21,4.18219462 L21,11.8178054 L19.681128,11.8178054 L19.681128,10.3436853 C18.8828633,11.4876467 17.9804772,12 16.7657267,12 C14.5618221,12 13,10.3436853 13,8.02594893 C13,5.6905452 14.5965293,4 16.8004338,4 C18.0151844,4 18.9002169,4.44830918 19.681128,5.442098 L19.681128,4.18219462 Z" id="Fill-12"></path>
                        <path d="M25.3571429,4.18644068 L25.3571429,5.50847458 C25.6071429,4.95028249 25.7857143,4.71186441 26.1071429,4.47457627 C26.5178571,4.16949153 27.0892857,4 27.6785714,4 L28,4 L28,5.30508475 C27.8571429,5.28926554 27.7142857,5.28926554 27.625,5.28926554 C26.8928571,5.28926554 26.25,5.61129944 25.8392857,6.18757062 C25.4821429,6.6779661 25.3571429,7.13559322 25.3571429,8.03389831 L25.3571429,12 L24,12 L24,4.18644068 L25.3571429,4.18644068 Z" id="Fill-13"></path>
                        <path d="M31.0477223,6.03837129 C30.6312364,6.58385093 30.3882863,7.3126294 30.3882863,8.05797101 C30.3882863,9.68226363 31.4989154,10.9068323 32.9566161,10.9068323 C34.4663774,10.9068323 35.6984816,9.56521739 35.6984816,7.92657005 C35.6984816,6.27025535 34.5878525,5.12739821 32.9913232,5.12739821 C32.1236443,5.12739821 31.516269,5.4089717 31.0477223,6.03837129 Z M35.681128,4.18219462 L37,4.18219462 L37,11.8178054 L35.681128,11.8178054 L35.681128,10.3436853 C34.8828633,11.4876467 33.9804772,12 32.7657267,12 C30.5618221,12 29,10.3436853 29,8.02594893 C29,5.6905452 30.5965293,4 32.8004338,4 C34.0151844,4 34.9002169,4.44830918 35.681128,5.442098 L35.681128,4.18219462 Z" id="Fill-14"></path>
                        <path d="M40.3943355,8.08585477 C40.3943355,9.76966717 41.5098039,11.0302572 43.0261438,11.0302572 C43.7930283,11.0302572 44.5424837,10.6717095 45.0653595,10.0771558 C45.4139434,9.68456884 45.6405229,8.91868381 45.6405229,8.13691377 C45.6405229,7.11573374 45.4836601,6.57110439 45.0130719,6.06051437 C44.5250545,5.53290469 43.7755991,5.19251135 43.0610022,5.19251135 C41.4923747,5.19251135 40.3943355,6.38388805 40.3943355,8.08585477 Z M45.6753813,4.18721634 L47,4.18721634 L47,12.0843419 C47,13.3959909 46.6688453,14.279879 45.9368192,14.9618003 C45.2222222,15.6414523 44.1938998,16 42.9738562,16 C41.4749455,16 40.2897603,15.5234493 39.4183007,14.570348 L40.3246187,13.6853253 C40.6906318,14.0597579 40.8649237,14.2118003 41.0915033,14.3649773 C41.5446623,14.637292 42.2941176,14.8245083 42.9738562,14.8245083 C43.8104575,14.8245083 44.6122004,14.5363086 45.0653595,14.0597579 C45.4662309,13.6342663 45.6753813,13.0034039 45.6753813,12.1864599 L45.6753813,10.5355522 C44.8910675,11.6940242 43.9673203,12.2216339 42.7124183,12.2216339 C40.5860566,12.2216339 39,10.4686082 39,8.13691377 C39,6.8774584 39.4705882,5.66906203 40.2723312,4.92019667 C40.9172113,4.30748865 41.788671,4 42.8169935,4 C44.037037,4 44.8562092,4.44364599 45.6753813,5.53290469 L45.6753813,4.18721634 Z" id="Fill-15"></path>
                        <path d="M55.6094421,7.47826087 C55.5579399,6.88198758 55.4377682,6.55072464 55.1630901,6.16866805 C54.6652361,5.52270531 53.8583691,5.126294 52.9828326,5.126294 C52.1072961,5.126294 51.3175966,5.52270531 50.8540773,6.1863354 C50.6137339,6.55072464 50.5107296,6.86542443 50.4077253,7.47826087 L55.6094421,7.47826087 Z M50.3905579,8.4057971 C50.4592275,9.05175983 50.5793991,9.38302277 50.9055794,9.79710145 C51.4206009,10.4761905 52.1759657,10.8405797 53.0343348,10.8405797 C54.0128755,10.8405797 54.9399142,10.3271222 55.4034335,9.53098689 L56.5536481,9.94506556 C55.9012876,11.2215321 54.5450644,12 53.0343348,12 C50.6824034,12 49,10.3436853 49,8.02484472 C49,5.67287785 50.6652361,4 52.9828326,4 C55.2832618,4 57,5.67287785 57,7.90890269 C57,8.00717736 57,8.22360248 56.9828326,8.4057971 L50.3905579,8.4057971 Z" id="Fill-16"></path>
                        <path d="M62.5535714,6.27025535 L62.5535714,6.18743961 C62.5535714,5.47412008 61.9285714,5.02801932 60.9821429,5.02801932 C60.0714286,5.02801932 59.5,5.45866115 59.5,6.12008282 C59.5,6.78371291 59.8571429,7.0310559 61.3392857,7.41200828 C62.3928571,7.67701863 62.9464286,7.92657005 63.3392857,8.28985507 C63.75,8.67191166 64,9.21849551 64,9.78164251 C64,11.1066943 62.8214286,12 61.0714286,12 C59.1964286,12 58.1428571,11.1884058 58,9.64913734 L59.3392857,9.64913734 C59.4285714,10.510421 60.0357143,10.9741891 61.0714286,10.9741891 C62,10.9741891 62.6071429,10.5258799 62.6071429,9.84679089 C62.6071429,9.18536922 62.1428571,8.85410628 60.7321429,8.52173913 C58.9464286,8.07563837 58.1428571,7.3799862 58.1428571,6.22056591 C58.1428571,4.89551415 59.3035714,4 61.0357143,4 C62.7857143,4 63.8392857,4.82815735 63.9107143,6.27025535 L62.5535714,6.27025535 Z" id="Fill-17"></path>
                    </g>
                </g>
                <path d="M602,71.4994135 C602,94.9719175 582.97218,114 559.5,114 C536.02782,114 517,94.9719175 517,71.4994135 C517,48.0269095 536.02782,29 559.5,29 C582.97218,29 602,48.0269095 602,71.4994135" id="Fill-18" fill="#FDEBA1"></path>
                <path d="M537.829787,69.1169415 C538.425532,69.1169415 538.822695,69.0629685 539.20331,68.9010495 C540.047281,68.5784108 540.593381,67.7328336 540.593381,66.7061469 C540.593381,65.6818591 540.06383,64.8530735 539.186761,64.5304348 C538.756501,64.3685157 538.309693,64.2953523 537.647754,64.2953523 L536.390071,64.2953523 L536.390071,69.1169415 L537.829787,69.1169415 Z M536.390071,75 L535,75 L535,63 L537.945626,63 C540.560284,63 542,64.2953523 542,66.6713643 C542,67.8575712 541.56974,68.9202399 540.825059,69.585907 C540.179669,70.1424288 539.319149,70.4122939 538.094563,70.4122939 L536.390071,70.4122939 L536.390071,75 Z" id="Fill-19" fill="#231F20"></path>
                <path d="M550.609442,70.4782609 C550.55794,69.8819876 550.437768,69.5507246 550.16309,69.168668 C549.665236,68.5227053 548.858369,68.126294 547.982833,68.126294 C547.107296,68.126294 546.317597,68.5227053 545.854077,69.1863354 C545.613734,69.5507246 545.51073,69.8654244 545.407725,70.4782609 L550.609442,70.4782609 Z M545.390558,71.4057971 C545.459227,72.0517598 545.579399,72.3830228 545.905579,72.7971014 C546.420601,73.4761905 547.175966,73.8405797 548.034335,73.8405797 C549.012876,73.8405797 549.939914,73.3271222 550.403433,72.5309869 L551.553648,72.9450656 C550.901288,74.2215321 549.545064,75 548.034335,75 C545.682403,75 544,73.3436853 544,71.0248447 C544,68.6728778 545.665236,67 547.982833,67 C550.283262,67 552,68.6728778 552,70.9089027 C552,71.0071774 552,71.2236025 551.982833,71.4057971 L545.390558,71.4057971 Z" id="Fill-20" fill="#231F20"></path>
                <path d="M554.33049,71.0082816 C554.33049,72.6977226 555.405117,73.8405797 557.008529,73.8405797 C558.560768,73.8405797 559.66951,72.6645963 559.66951,71.0082816 C559.66951,69.3022774 558.61194,68.1605245 557.025586,68.1605245 C555.405117,68.1605245 554.33049,69.3022774 554.33049,71.0082816 M561,71.0259489 C561,73.2608696 559.226013,75 556.974414,75 C554.637527,75 553,73.3436853 553,70.9917184 C553,68.6242926 554.637527,67 557.025586,67 C559.345416,67 561,68.6739821 561,71.0259489" id="Fill-21" fill="#231F20"></path>
                <path d="M564.318872,71.3430233 C564.318872,73.1046512 565.37744,74.2732558 566.956616,74.2732558 C568.535792,74.2732558 569.59436,73.0348837 569.59436,71.2034884 C569.59436,70.2616279 569.368764,69.5465116 568.900217,69.0232558 C568.43167,68.5 567.720174,68.1860465 567.008677,68.1860465 C565.412148,68.1860465 564.318872,69.4593023 564.318872,71.3430233 Z M564.318872,67.1918605 L564.318872,68.6569767 C565.08243,67.4709302 565.898048,67 567.234273,67 C569.455531,67 571,68.7093023 571,71.1511628 C571,73.6802326 569.455531,75.4244186 567.234273,75.4244186 C566.609544,75.4244186 566.036876,75.2848837 565.481562,75.0046512 C564.995662,74.7604651 564.752711,74.5523256 564.318872,73.9767442 L564.318872,79 L563,79 L563,67.1918605 L564.318872,67.1918605 Z" id="Fill-22" fill="#231F20"></path>
                <polygon id="Fill-23" fill="#231F20" points="574 75 575 75 575 63 574 63"></polygon>
                <path d="M583.609442,70.4782609 C583.55794,69.8819876 583.437768,69.5507246 583.16309,69.168668 C582.665236,68.5227053 581.858369,68.126294 580.982833,68.126294 C580.107296,68.126294 579.317597,68.5227053 578.854077,69.1863354 C578.613734,69.5507246 578.51073,69.8654244 578.407725,70.4782609 L583.609442,70.4782609 Z M578.390558,71.4057971 C578.459227,72.0517598 578.579399,72.3830228 578.905579,72.7971014 C579.420601,73.4761905 580.175966,73.8405797 581.034335,73.8405797 C582.012876,73.8405797 582.939914,73.3271222 583.403433,72.5309869 L584.553648,72.9450656 C583.901288,74.2215321 582.545064,75 581.034335,75 C578.682403,75 577,73.3436853 577,71.0248447 C577,68.6728778 578.665236,67 580.982833,67 C583.283262,67 585,68.6728778 585,70.9089027 C585,71.0071774 585,71.2236025 584.982833,71.4057971 L578.390558,71.4057971 Z" id="Fill-24" fill="#231F20"></path>
                <path d="M473,109.5 C473,132.97218 453.97218,152 430.5,152 C407.02782,152 388,132.97218 388,109.5 C388,86.0278199 407.02782,67 430.5,67 C453.97218,67 473,86.0278199 473,109.5" id="Fill-25" fill="#FDEBA1"></path>
                <path d="M405.380282,112.776612 L406.760563,112.776612 C407.910798,112.776612 408.35446,112.686657 408.830986,112.38081 C409.356808,112.055772 409.619718,111.481259 409.619718,110.671664 C409.619718,109.232384 408.847418,108.602699 407.105634,108.602699 L405.380282,108.602699 L405.380282,112.776612 Z M405.380282,107.37931 L406.776995,107.37931 C407.631455,107.37931 408.173709,107.235382 408.568075,106.893553 C408.995305,106.533733 409.241784,105.922039 409.241784,105.255172 C409.241784,104.482759 408.913146,103.7991 408.370892,103.529235 C407.976526,103.313343 407.516432,103.241379 406.514085,103.241379 L405.380282,103.241379 L405.380282,107.37931 Z M407.089202,102 C409.323944,102 410.589202,103.151424 410.589202,105.184408 C410.589202,105.94003 410.375587,106.641679 409.964789,107.127436 C409.685446,107.469265 409.438967,107.649175 408.847418,107.901049 C409.471831,108.044978 409.751174,108.170915 410.096244,108.476762 C410.687793,108.98051 411,109.790105 411,110.76042 C411,111.895052 410.556338,112.865367 409.816901,113.388306 C409.176056,113.838081 408.469484,114 407.089202,114 L404,114 L404,102 L407.089202,102 Z" id="Fill-26" fill="#231F20"></path>
                <path d="M419,106 L419,111 C419,112.067797 418.798883,112.662147 418.22905,113.186441 C417.659218,113.711864 416.854749,114 416,114 C415.128492,114 414.324022,113.694915 413.77095,113.169492 C413.251397,112.662147 413,111.949153 413,111 L413,106 L414.273743,106 L414.273743,110.967232 C414.273743,112.067797 414.977654,112.848588 416,112.848588 C416.536313,112.848588 417.055866,112.627119 417.357542,112.254237 C417.608939,111.949153 417.709497,111.610169 417.709497,111 L417.709497,106 L419,106 Z" id="Fill-27" fill="#231F20"></path>
                <path d="M425.553571,108.270255 L425.553571,108.18744 C425.553571,107.47412 424.928571,107.028019 423.982143,107.028019 C423.071429,107.028019 422.5,107.458661 422.5,108.120083 C422.5,108.783713 422.857143,109.031056 424.339286,109.412008 C425.392857,109.677019 425.946429,109.92657 426.339286,110.289855 C426.75,110.671912 427,111.218496 427,111.781643 C427,113.106694 425.821429,114 424.071429,114 C422.196429,114 421.142857,113.188406 421,111.649137 L422.339286,111.649137 C422.428571,112.510421 423.035714,112.974189 424.071429,112.974189 C425,112.974189 425.607143,112.52588 425.607143,111.846791 C425.607143,111.185369 425.142857,110.854106 423.732143,110.521739 C421.946429,110.075638 421.142857,109.379986 421.142857,108.220566 C421.142857,106.895514 422.303571,106 424.035714,106 C425.785714,106 426.839286,106.828157 426.910714,108.270255 L425.553571,108.270255 Z" id="Fill-28" fill="#231F20"></path>
                <path d="M429.203943,114 L430.753909,114 L430.753909,106.075737 L429.203943,106.075737 L429.203943,114 Z M431,103.859465 C431,104.323575 430.549966,104.683405 430.00068,104.683405 C429.42964,104.683405 429,104.323575 429,103.842275 C429,103.360975 429.42964,103 430.00068,103 C430.57172,103 431,103.378164 431,103.859465 Z" id="Fill-29" fill="#231F20"></path>
                <path d="M434.270195,106.186441 L434.270195,107.289266 C434.938719,106.372881 435.607242,106 436.559889,106 C437.261838,106 437.896936,106.237288 438.348189,106.644068 C438.832869,107.118644 439,107.662147 439,108.728814 L439,114 L437.729805,114 L437.729805,109.016949 C437.729805,108.323164 437.64624,107.950282 437.445682,107.677966 C437.228412,107.355932 436.760446,107.152542 436.24234,107.152542 C435.674095,107.152542 435.155989,107.372881 434.771588,107.813559 C434.4039,108.220339 434.270195,108.59322 434.270195,109.237288 L434.270195,114 L433,114 L433,106.186441 L434.270195,106.186441 Z" id="Fill-30" fill="#231F20"></path>
                <path d="M448.609442,109.478261 C448.55794,108.881988 448.437768,108.550725 448.16309,108.168668 C447.665236,107.522705 446.858369,107.126294 445.982833,107.126294 C445.107296,107.126294 444.317597,107.522705 443.854077,108.186335 C443.613734,108.550725 443.51073,108.865424 443.407725,109.478261 L448.609442,109.478261 Z M443.390558,110.405797 C443.459227,111.05176 443.579399,111.383023 443.905579,111.797101 C444.420601,112.47619 445.175966,112.84058 446.034335,112.84058 C447.012876,112.84058 447.939914,112.327122 448.403433,111.530987 L449.553648,111.945066 C448.901288,113.221532 447.545064,114 446.034335,114 C443.682403,114 442,112.343685 442,110.024845 C442,107.672878 443.665236,106 445.982833,106 C448.283262,106 450,107.672878 450,109.908903 C450,110.007177 450,110.223602 449.982833,110.405797 L443.390558,110.405797 Z" id="Fill-31" fill="#231F20"></path>
                <path d="M455.553571,108.270255 L455.553571,108.18744 C455.553571,107.47412 454.928571,107.028019 453.982143,107.028019 C453.071429,107.028019 452.5,107.458661 452.5,108.120083 C452.5,108.783713 452.857143,109.031056 454.339286,109.412008 C455.392857,109.677019 455.946429,109.92657 456.339286,110.289855 C456.75,110.671912 457,111.218496 457,111.781643 C457,113.106694 455.821429,114 454.071429,114 C452.196429,114 451.142857,113.188406 451,111.649137 L452.339286,111.649137 C452.428571,112.510421 453.035714,112.974189 454.071429,112.974189 C455,112.974189 455.607143,112.52588 455.607143,111.846791 C455.607143,111.185369 455.142857,110.854106 453.732143,110.521739 C451.946429,110.075638 451.142857,109.379986 451.142857,108.220566 C451.142857,106.895514 452.303571,106 454.035714,106 C455.785714,106 456.839286,106.828157 456.910714,108.270255 L455.553571,108.270255 Z" id="Fill-32" fill="#231F20"></path>
                <path d="M462.553571,108.270255 L462.553571,108.18744 C462.553571,107.47412 461.928571,107.028019 460.982143,107.028019 C460.071429,107.028019 459.5,107.458661 459.5,108.120083 C459.5,108.783713 459.857143,109.031056 461.339286,109.412008 C462.392857,109.677019 462.946429,109.92657 463.339286,110.289855 C463.75,110.671912 464,111.218496 464,111.781643 C464,113.106694 462.821429,114 461.071429,114 C459.196429,114 458.142857,113.188406 458,111.649137 L459.339286,111.649137 C459.428571,112.510421 460.035714,112.974189 461.071429,112.974189 C462,112.974189 462.607143,112.52588 462.607143,111.846791 C462.607143,111.185369 462.142857,110.854106 460.732143,110.521739 C458.946429,110.075638 458.142857,109.379986 458.142857,108.220566 C458.142857,106.895514 459.303571,106 461.035714,106 C462.785714,106 463.839286,106.828157 463.910714,108.270255 L462.553571,108.270255 Z" id="Fill-33" fill="#231F20"></path>
                <path d="M191,386.32429 C191,386.32429 194.191332,385.894637 195.719824,385.805621 C197.249495,385.716604 198.776809,375.763369 200.575174,375.040555 C202.374718,374.320114 202.778937,383.427099 202.758903,384.195015 C202.750654,384.507166 205.32446,384.149913 208.651318,383.867434 C213.507846,383.454397 219.737307,383.016436 219.949434,383.530358 C220.31005,384.394412 218.623641,385.632335 218.623641,385.632335 C218.623641,385.632335 219.086784,387.43759 217.296669,387.775853 C217.296669,387.775853 217.237745,390.080788 215.709252,390.168618 C215.709252,390.168618 215.024554,392.073571 213.36525,392.286024 C213.36525,392.286024 213.97099,393.455108 211.532709,394.288303 C209.094427,395.121497 203.407069,395.147609 202.265119,394.753562 C196.008553,392.58868 191.679985,394.54111 191.679985,394.54111 L191,386.32429 Z" id="Fill-34" fill="#FDC974"></path>
                <path d="M100.045405,357.548158 C92.32121,354.129668 83.9527475,367.528058 88.1001468,374.822001 C92.2475461,382.115943 130.804211,401.414137 133.765971,401.964119 C136.7289,402.5141 193,396.559648 193,396.559648 L191.011072,384.069367 C191.011072,384.069367 138.354185,384.443773 136.620158,384.399588 C134.887301,384.355404 106.838861,360.553872 100.045405,357.548158" id="Fill-35" fill="#FCB614"></path>
                <path d="M83.7107227,593 L81,609.916226 L87.1272518,610.696116 L87.9206919,608.553798 C87.9206919,608.553798 97.8730352,612.116798 114,610.642617 C114,610.642617 107.987619,599.620737 93.5339841,594.477748 L83.7107227,593 Z" id="Fill-36" fill="#22272D"></path>
                <path d="M44.7107227,593 L42,609.916226 L48.1272518,610.697305 L48.9206919,608.553798 C48.9206919,608.553798 58.8730352,612.116798 75,610.642617 C75,610.642617 68.9876193,599.620737 54.5339841,594.478936 L44.7107227,593 Z" id="Fill-37" fill="#323740"></path>
                <path d="M98.954688,434.459176 C98.954688,434.459176 102,498.368168 102,503.998022 C102,509.626704 96.29004,591.879336 95.909376,596 L80.5103277,596 C80.5103277,596 83.6924408,520.411493 81.9972964,509.588007 C80.3009625,498.765694 80,446.23133 80,446.23133 L85.8408132,427 L98.954688,434.459176 Z" id="Fill-38" fill="#65594D"></path>
                <path d="M93,431.335582 L79.1836568,517.429234 L61.7886155,597 L44,592.68347 C44,592.68347 60.4535267,520.367524 60.8459226,510.486425 C60.8459226,510.486425 50.8215617,458.17079 59.328187,420 L93,431.335582 Z" id="Fill-39" fill="#716558"></path>
                <polygon id="Fill-40" fill="#BC5070" points="80 346 100 351.792791 92.3435756 360"></polygon>
                <path d="M88.8231794,331 L80,354.983316 C80,354.983316 87.6463589,368.480103 94.1170871,362.447967 L105,336.602265 L88.8231794,331 Z" id="Fill-41" fill="#FDC974"></path>
                <path d="M87,336.838907 C89.33329,339.218668 96.3916093,346.105554 100.707494,347 L105,336.60977 L89.1076763,331 L87,336.838907 Z" id="Fill-42" fill="#221E1F" opacity="0.200000003"></path>
                <path d="M130.515248,289.403491 C130.515248,289.403491 136.615688,339.808914 105.534115,340.973512 C74.4513666,342.138111 73,304.553879 73,296.395796 C73,288.237713 83.3605244,276 101.999127,276 C120.638904,276 130.515248,285.035068 130.515248,289.403491" id="Fill-43" fill="#FDC974"></path>
                <path d="M120.459375,317 C120.459375,317 125.991104,327.299264 123.225861,328.476697 C120.459375,329.654129 118,328.476697 118,328.476697 L120.459375,317 Z" id="Fill-44" fill="#F8A36A"></path>
                <path d="M112,310.000607 C112,312.761864 110.433339,315 108.500625,315 C106.566661,315 105,312.761864 105,310.000607 C105,307.239349 106.566661,305 108.500625,305 C110.433339,305 112,307.239349 112,310.000607" id="Fill-45" fill="#414141"></path>
                <path d="M129,311 C129,313.209162 128.104542,315 127.000537,315 C125.895458,315 125,313.209162 125,311 C125,308.791991 125.895458,307 127.000537,307 C128.104542,307 129,308.791991 129,311" id="Fill-46" fill="#414141"></path>
                <path d="M110,308.499337 C110,309.327883 109.776051,310 109.5,310 C109.223949,310 109,309.327883 109,308.499337 C109,307.672117 109.223949,307 109.5,307 C109.776051,307 110,307.672117 110,308.499337" id="Fill-47" fill="#FEFEFE"></path>
                <path d="M128,309.500663 C128,310.329209 127.775846,311 127.500457,311 C127.224154,311 127,310.329209 127,309.500663 C127,308.672117 127.224154,308 127.500457,308 C127.775846,308 128,308.672117 128,309.500663" id="Fill-48" fill="#FEFEFE"></path>
                <path d="M84.9650523,337 C84.9650523,337 89.9638293,320.988132 89.9638293,312.731243 C89.9638293,312.731243 82.9653072,313.274198 82.7157784,305.120505 C82.4650781,296.967985 90.9631161,302.723533 90.9631161,302.723533 C90.9631161,302.723533 92.9628612,300.721756 93.7126192,294.216862 C93.7126192,294.216862 125.455497,306.476131 137.202096,294.216862 C148.949867,281.95642 137.084947,268.88096 123.51667,272.950184 C123.51667,272.950184 115.602038,260.305101 99.4611542,262.191954 C82.3420709,264.19373 82.7099209,274.451223 82.7099209,274.451223 C82.7099209,274.451223 66.2199315,273.950486 64.2201864,292.965605 C62.2204413,311.980724 74.2177404,331.747535 84.9650523,337" id="Fill-49" fill="#603916"></path>
                <path d="M116,335.911659 C116,335.911659 106.662796,336.937183 102,332" id="Stroke-50" stroke="#716558" stroke-width="0.59" stroke-linecap="round"></path>
                <path d="M78.4086976,352 C78.4086976,352 53.365666,369.34804 52,440.77669 C52,440.77669 64.9278393,454.268574 89.5133204,458 L91.2468896,448.050697 L92.8873188,458 C92.8873188,458 98.5281132,454.020279 103,451.036071 L101.508595,360.14479 L92.5555074,360.456033 L78.4086976,352 Z" id="Fill-51" fill="#FDD945"></path>
                <path d="M110.574382,468 C110.574382,468 112.706004,470.401626 113.628557,471.61336 C114.55111,472.825095 123.817066,468.787513 125.424401,469.885431 C127.032926,470.98335 119.552634,476.161389 118.891629,476.55342 C118.624136,476.713222 120.352735,478.64464 122.434425,481.233659 C125.475522,485.016018 129.298888,489.913541 128.981463,490.361906 C128.450044,491.118378 126.469407,490.389498 126.469407,490.389498 C126.469407,490.389498 125.198518,491.731143 123.920497,490.436634 C123.920497,490.436634 121.938671,491.613879 121.016118,490.400994 C121.016118,490.400994 119.02597,490.850509 117.926277,489.597387 C117.926277,489.597387 117.273594,490.718299 115.216871,489.152471 C113.160147,487.587793 109.987086,482.916751 109.688683,481.765948 C108.050438,475.4601 104,472.933162 104,472.933162 L110.574382,468 Z" id="Fill-52" fill="#FDC974"></path>
                <path d="M85.6535025,376.232858 C84.3187316,367.845763 68.4051409,368.180407 64.5056531,375.690665 C60.6050006,383.202088 65.3815237,426.301241 66.5369275,429.098495 C67.693496,431.895748 103.523825,476 103.523825,476 L113,467.444999 C113,467.444999 83.8679843,423.309265 82.9571721,421.824937 C82.0451951,420.340609 86.8287065,383.609025 85.6535025,376.232858" id="Fill-53" fill="#FCB614"></path>
                <polygon id="Fill-54" fill="#FCB614" points="82.4096656 347.879333 93 360.162525 85.3689505 367 76 351.617397 80.8612697 346"></polygon>
                <polygon id="Fill-55" fill="#FCB614" points="93 360.305116 100.990635 352 104 359.999428 97.819398 368"></polygon>
                <path d="M92.6427648,360 C92.6427648,360 84.0919906,411.179839 97.7520404,437.246115 L104.609975,439 L107,431.481673 C107,431.481673 92.6427648,406.919062 92.6427648,360" id="Fill-56" fill="#B63129"></path>
                <path d="M131.595403,555.141577 C165.450799,560.128165 194.726449,554.992985 209.508564,549.080919 C219.486873,545.091181 225.290152,540.202874 227.250387,534.143386 C231.139182,522.115671 219.931474,504.497642 209.092117,487.458769 C199.855201,472.93893 190.302724,457.924176 187.941293,443.71088 C184.176845,421.058293 187.494345,402.955879 197.798773,389.903234 C211.340931,372.7497 231.867671,371.078924 232.734585,371.014573 C235.725966,370.796951 238.337266,373.042203 238.567192,376.035092 C238.795945,379.02798 236.544784,381.641785 233.546364,381.881638 C233.379785,381.895678 216.785245,383.368722 206.298988,396.75365 C198.04043,407.294281 195.491304,422.492726 198.720822,441.927783 C200.718596,453.957838 209.665758,468.020202 218.317301,481.620413 C231.068797,501.663875 243.112918,520.595826 237.648662,537.488448 C234.629127,546.823967 226.755342,553.923595 213.574496,559.195666 C199.211174,564.940421 179.455155,568 158.963608,568 C149.310245,568 139.491476,567.320223 130,565.92206" id="Fill-57" fill="#E5E5E4"></path>
                <path d="M230,382 C231.938927,381.601089 233.213756,381.473392 233.450934,381.451921 L233.453306,381.451921 C233.473466,381.449661 233.485325,381.448531 233.488882,381.448531 C233.662022,381.43497 233.831604,381.414629 234,381.386378 L232.135784,371 C231.742069,371.039552 231.149125,371.107356 230.394901,371.219232 L230,382" id="Fill-58" fill="#DAD9D9"></path>
                <path d="M860,439.999307 C860,600.713525 729.71491,731 569.000693,731 C408.28509,731 278,600.713525 278,439.999307 C278,279.28509 408.28509,149 569.000693,149 C729.71491,149 860,279.28509 860,439.999307" id="Fill-64" fill="#FEF3C7"></path>
                <path d="M322.814044,361.078981 C325.695975,360.570655 328.43288,362.569191 328.923644,365.543617 C329.415567,368.518043 327.479198,371.342609 324.596107,371.849736 L289.782063,378 L288,367.229245 L322.814044,361.078981" id="Fill-59" fill="#DFDDDD"></path>
                <path d="M311.794588,349.075566 C314.685058,348.590154 317.428909,350.494113 317.923454,353.327779 C318.416836,356.161446 316.473565,358.852344 313.580768,359.336614 L285.78618,364 L284,353.738952 L311.794588,349.075566" id="Fill-60" fill="#DFDDDD"></path>
                <path d="M294.416733,377 L297,376.512769 C296.617841,373.19307 296.144893,369.661227 295.583267,366 L293,366.488397 C293.56057,370.148458 294.034574,373.680301 294.416733,377" id="Fill-61" fill="#D2D2D2"></path>
                <path d="M292.122708,364 L294.063235,363.668448 L295,363.508551 C294.328867,359.799166 293.61307,356.264964 292.877292,353 L290,353.491449 C290.735778,356.756413 291.45275,360.290616 292.122708,364" id="Fill-62" fill="#D2D2D2"></path>
                <path d="M233.80996,367.691838 L248.43126,365.21113 C249.673669,365.000504 250.776986,364.299587 251.490134,363.267519 L269.446137,337.276253 C270.954945,335.092762 273.290063,333.607848 275.919869,333.162022 L282.718939,332.008259 C285.143642,331.596368 289.758475,346.642095 293.02481,365.61249 C296.291145,384.581714 296.972467,400.294424 294.547764,400.706315 L287.748694,401.860078 C285.118888,402.305904 282.420713,401.676366 280.267124,400.114222 L254.632699,381.519444 C253.615432,380.782252 252.338839,380.483865 251.097608,380.694492 L236.476308,383.175199 C235.291657,383.376464 234.167123,382.586616 233.964377,381.41062 L232.031216,370.185417 C231.829648,369.009421 232.625309,367.893103 233.80996,367.691838" id="Fill-63" fill="#F2F1F2"></path>
                <path d="M789,440 C789,560.95109 690.726233,659 569.500645,659 C448.272478,659 350,560.95109 350,440 C350,319.04891 448.272478,221 569.500645,221 C690.726233,221 789,319.04891 789,440" id="Fill-65" fill="#FDEBA1"></path>
                <path d="M747,439.499349 C747,537.529499 667.306652,617 569,617 C470.693348,617 391,537.529499 391,439.499349 C391,341.469199 470.693348,262 569,262 C667.306652,262 747,341.469199 747,439.499349" id="Fill-66" fill="#FDE47D"></path>
                <path d="M704,440 C704,514.006715 643.782859,574 569.5,574 C495.217141,574 435,514.006715 435,440 C435,365.993285 495.217141,306 569.5,306 C643.782859,306 704,365.993285 704,440" id="Fill-67" fill="#FDD844"></path>
                <path d="M650,440 C650,484.183495 613.958467,520 569.5,520 C525.041533,520 489,484.183495 489,440 C489,395.816505 525.041533,360 569.5,360 C613.958467,360 650,395.816505 650,440" id="Fill-68" fill="#FECD21"></path>
                <path d="M632.17006,340.628257 L602.415897,340.628257 L602.415897,333.92854 C602.415897,328.445039 597.9466,324 592.4367,324 L565.5633,324 C560.0534,324 555.584103,328.445039 555.584103,333.92854 L555.584103,340.628257 L525.82994,340.628257 C519.297076,340.628257 514,345.896581 514,352.395155 L514,395.335797 L514,416.492123 L514,556.022603 C514,562.638121 519.391142,568 526.042764,568 L631.95606,568 C638.608858,568 644,562.638121 644,556.022603 L644,416.492123 L644,395.335797 L644,352.395155 C644,345.896581 638.702924,340.628257 632.17006,340.628257" id="Fill-69" fill="#121416" opacity="0.200000003"></path>
                <path d="M636,389 L506,389 L506,345.828627 C506,339.296488 511.298204,334 517.831009,334 L624.170167,334 C630.702972,334 636,339.296488 636,345.828627 L636,389" id="Fill-70" fill="#006193"></path>
                <path d="M623.956169,562 L518.043831,562 C511.392269,562 506,556.620663 506,549.983605 L506,410 L636,410 L636,549.983605 C636,556.620663 630.608907,562 623.956169,562" id="Fill-71" fill="#B63029"></path>
                <polygon id="Fill-72" fill="#ECECEC" points="506 410 636 410 636 389 506 389"></polygon>
                <path d="M547,556 L523.109564,556 C516.421046,556 511,550.648219 511,544.04516 L511,417.221373 L511,411 L534.890436,411 L534.890436,417.221373 L534.890436,544.04516 C534.890436,550.648219 540.311482,556 547,556" id="Fill-73" fill="#D3423F"></path>
                <path d="M535.365712,389 L512,389 L512,352.650575 C512,346.21792 517.209469,341 523.634288,341 L547,341 C540.575181,341 535.365712,346.21792 535.365712,352.650575 L535.365712,389" id="Fill-74" fill="#0983B4"></path>
                <polygon id="Fill-75" fill="#F3F3F4" points="535 410 511 410 511 395.187873 511 389 535 389 535 395.187873"></polygon>
                <path d="M583.984961,318 L557.016219,318 C551.48535,318 547,322.544412 547,328.150503 L547,335 L594,335 L594,328.150503 C594,322.544412 589.51583,318 583.984961,318" id="Fill-76" fill="#A8A8A8"></path>
                <path d="M733.078208,568.095641 L614.311194,556.739571 L606.920623,556.033173 C603.097914,555.667715 600,558.363701 600,562.054482 L600,660.56016 C600,664.252109 603.097914,667.540068 606.920623,667.904359 L725.688806,679.260429 L733.078208,679.966827 C736.900917,680.332285 740,677.636299 740,673.945518 L740,575.43984 C740,571.749059 736.900917,568.459932 733.078208,568.095641" id="Fill-79" fill="#121416" opacity="0.200000003"></path>
                <path d="M721.31863,649.577314 L606.68137,666.923313 C602.990731,667.482217 600,664.926051 600,661.214503 L600,562.154561 C600,558.443012 602.990731,554.981562 606.68137,554.422658 L721.31863,537.076659 C725.008097,536.517754 728,539.075095 728,542.786643 L728,641.846585 C728,645.558134 725.008097,649.019584 721.31863,649.577314" id="Fill-80" fill="#CBCBCA"></path>
                <path d="M728.31863,648.577319 L613.68137,665.923314 C609.990731,666.482218 607,663.926053 607,660.213331 L607,561.154583 C607,557.441861 609.990731,553.981586 613.68137,553.422681 L728.31863,536.076686 C732.008097,535.517782 735,538.073947 735,541.786669 L735,640.845417 C735,644.558139 732.008097,648.018414 728.31863,648.577319" id="Fill-81" fill="#F2F1F2"></path>
                <path d="M707,595.487952 C707,615.692896 690.658288,634.538836 670.499415,637.581975 C650.341712,640.626283 634,626.715794 634,606.51202 C634,586.307077 650.341712,567.461137 670.499415,564.417998 C690.658288,561.37369 707,575.285348 707,595.487952" id="Fill-82" fill="#DFDDDD"></path>
                <path d="M670.721579,564.418656 C669.805082,564.55805 668.899052,564.740785 668,564.945776 C686.762615,563.497952 701.555678,577.056664 701.555678,596.366847 C701.555678,615.67703 686.762615,633.737352 668,638 C668.899052,637.930889 669.805082,637.83835 670.721579,637.698956 C690.757754,634.649856 707,615.775426 707,595.537511 C707,575.30311 690.757754,561.369556 670.721579,564.418656" id="Fill-83" fill="#CBCBCA"></path>
                <path d="M656,602.680467 C656,605.684242 653.537761,608.484661 650.500576,608.937953 C647.463392,609.39011 645,607.322459 645,604.318684 C645,601.316045 647.463392,598.513354 650.500576,598.062334 C653.537761,597.609041 656,599.676692 656,602.680467" id="Fill-84" fill="#808080"></path>
                <path d="M690,597.67982 C690,600.684499 687.537503,603.484701 684.5,603.937959 C681.462497,604.390081 679,602.322589 679,599.31791 C679,596.316639 681.462497,593.514165 684.5,593.062043 C687.537503,592.609921 690,594.677413 690,597.67982" id="Fill-85" fill="#808080"></path>
                <path d="M650.106368,598.062062 C649.728524,598.114333 649.359323,598.20183 649,598.314327 C651.727642,598.413188 653.789734,600.333586 653.789734,602.988053 C653.789734,605.643657 651.727642,608.137902 649,608.995831 C649.359323,609.008331 649.728524,608.993558 650.106368,608.940151 C653.361263,608.487891 656,605.685701 656,602.681244 C656,599.677923 653.361263,597.609802 650.106368,598.062062" id="Fill-86" fill="#989898"></path>
                <path d="M685.104288,593.061775 C684.72631,593.115182 684.358214,593.202678 684,593.315172 C686.727369,593.414031 688.790189,595.334397 688.790189,597.98882 C688.790189,600.644379 686.727369,603.138582 684,603.995361 C684.358214,604.008996 684.72631,603.993088 685.104288,603.940818 C688.360332,603.488566 691,600.686423 691,597.68088 C691,594.678746 688.360332,592.610659 685.104288,593.061775" id="Fill-87" fill="#989898"></path>
                <path d="M780.078208,387.095622 L661.311194,375.73957 L653.920623,375.033173 C650.097914,374.667715 647,377.363698 647,381.054473 L647,479.560001 C647,483.251944 650.097914,486.539899 653.920623,486.904189 L772.688806,498.26141 L780.078208,498.966638 C783.900917,499.333264 787,496.636114 787,492.945338 L787,394.439811 C787,390.749035 783.900917,387.459913 780.078208,387.095622" id="Fill-88" fill="#121416" opacity="0.200000003"></path>
                <path d="M768.31863,467.578335 L653.68137,484.923312 C649.990731,485.482222 647,482.926033 647,479.214452 L647,380.153636 C647,376.442055 649.990731,372.980575 653.68137,372.421665 L768.31863,355.076688 C772.008097,354.517778 775,357.073967 775,360.785548 L775,459.846364 C775,463.557945 772.008097,467.019425 768.31863,467.578335" id="Fill-89" fill="#CBCBCA"></path>
                <path d="M775.31863,466.577314 L660.68137,483.923313 C656.991903,484.482217 654,481.926051 654,478.214503 L654,379.154561 C654,375.443012 656.991903,371.981562 660.68137,371.422658 L775.31863,354.076659 C779.008097,353.517754 782,356.075095 782,359.786643 L782,458.846585 C782,462.558134 779.008097,466.019584 775.31863,466.577314" id="Fill-90" fill="#F2F1F2"></path>
                <path d="M755,413.488636 C755,433.692098 738.658288,452.537748 718.499415,455.582009 C698.341712,458.626271 682,444.714827 682,424.511364 C682,404.306732 698.341712,385.461082 718.499415,382.417991 C738.658288,379.373729 755,393.285173 755,413.488636" id="Fill-91" fill="#DFDDDD"></path>
                <path d="M718.721579,382.418655 C717.805082,382.558049 716.900215,382.740784 716,382.945776 C734.762615,381.499122 749.555678,395.056663 749.555678,414.366847 C749.555678,433.67703 734.762615,451.738523 716,456 C716.900215,455.93206 717.805082,455.83835 718.721579,455.700127 C738.757754,452.649856 755,433.775426 755,413.538682 C755,393.303109 738.757754,379.369555 718.721579,382.418655" id="Fill-92" fill="#CBCBCA"></path>
                <path d="M704,421.680106 C704,424.683649 701.537761,427.484987 698.500576,427.938245 C695.463392,428.38923 693,426.321739 693,423.318196 C693,420.315788 695.463392,417.514451 698.500576,417.062329 C701.537761,416.609071 704,418.676563 704,421.680106" id="Fill-93" fill="#808080"></path>
                <path d="M738,416.680467 C738,419.684242 735.537503,422.485797 732.5,422.937953 C729.462497,423.39011 727,421.322459 727,418.318684 C727,415.316045 729.462497,412.513354 732.5,412.062334 C735.537503,411.609041 738,413.676692 738,416.680467" id="Fill-94" fill="#808080"></path>
                <path d="M698.105328,417.062062 C697.727417,417.114333 697.358151,417.20183 697,417.314327 C699.726888,417.413187 701.789344,419.333583 701.789344,421.989184 C701.789344,424.643649 699.726888,427.137891 697,427.995819 C697.358151,428.008319 697.727417,427.993546 698.105328,427.941275 C701.360797,427.489016 704,424.685693 704,421.681239 C704,418.677921 701.360797,416.609803 698.105328,417.062062" id="Fill-95" fill="#989898"></path>
                <path d="M732.104288,412.062062 C731.72631,412.114333 731.358214,412.20183 731,412.314327 C733.727369,412.413188 735.791424,414.333586 735.791424,416.988053 C735.791424,419.643657 733.727369,422.137902 731,422.995831 C731.358214,423.008331 731.72631,422.993558 732.104288,422.940151 C735.360332,422.489028 738,419.685701 738,416.681244 C738,413.677923 735.360332,411.609802 732.104288,412.062062" id="Fill-96" fill="#989898"></path>
                <path d="M553,580.099461 C553,576.394426 549.613501,572.504198 545.435687,571.408276 L514.192802,563.223442 L407.564313,535.288579 C403.386499,534.193829 400,536.309485 400,540.015693 L400,638.900631 C400,642.605666 403.386499,646.497067 407.564313,647.591816 L537.359828,681.597029 L545.435687,683.711513 C549.613501,684.806263 553,682.689435 553,678.984399 L553,580.099461 Z" id="Fill-97" fill="#121416" opacity="0.200000003"></path>
                <path d="M413.681129,648.293838 L528.317701,664.929398 C532.007996,665.464669 535,662.898415 535,659.196027 L534.99883,560.379416 C534.99883,556.677029 532.007996,553.242863 528.317701,552.706421 L413.681129,536.07086 C409.990835,535.534418 407,538.101844 407,541.805402 L407,640.619671 C407,644.322058 409.990835,647.758567 413.681129,648.293838" id="Fill-98" fill="#CBCBCA"></path>
                <path d="M406.68119,647.293838 L521.31881,663.929398 C525.009138,664.464669 528,661.898415 528,658.196027 L528,559.379416 C528,555.677029 525.009138,552.242863 521.31881,551.707592 L406.68119,535.07086 C402.990862,534.534418 400,537.101844 400,540.805402 L400,639.619671 C400,643.322058 402.990862,646.758567 406.68119,647.293838" id="Fill-99" fill="#F2F1F2"></path>
                <path d="M427,593.69594 C427,613.917713 443.341436,632.68454 463.500584,635.613162 C483.658564,638.541784 500,624.524897 500,604.303124 C500,584.082521 483.658564,565.315695 463.500584,562.387073 C443.341436,559.45728 427,573.476508 427,593.69594" id="Fill-100" fill="#DFDDDD"></path>
                <path d="M463.277774,562.387603 C464.194466,562.521224 465.099554,562.700558 466,562.899818 C447.236834,561.561261 432.444451,575.214068 432.444451,594.537571 C432.444451,613.85873 447.236834,631.843677 466,636 C465.099554,635.935534 464.194466,635.847625 463.277774,635.714004 C443.241684,632.78137 427,613.988835 427,593.73936 C427,573.492229 443.241684,559.453797 463.277774,562.387603" id="Fill-101" fill="#CBCBCA"></path>
                <path d="M478,601.710972 C478,604.718149 480.462326,607.507036 483.499425,607.94248 C486.536524,608.377923 489,606.293933 489,603.287892 C489,600.282989 486.536524,597.492965 483.499425,597.057521 C480.462326,596.622077 478,598.706068 478,601.710972" id="Fill-102" fill="#808080"></path>
                <path d="M444,596.71134 C444,599.718752 446.462584,602.507857 449.5,602.942198 C452.537416,603.378813 455,601.294659 455,598.288384 C455,595.283245 452.537416,592.493003 449.5,592.057526 C446.462584,591.622048 444,593.706202 444,596.71134" id="Fill-103" fill="#808080"></path>
                <path d="M483.894737,597.057537 C484.273015,597.107575 484.641436,597.194006 485,597.304318 C482.271959,597.416904 480.209294,599.351348 480.209294,602.009077 C480.209294,604.66453 482.271959,607.150535 485,607.994367 C484.641436,608.009151 484.273015,607.995504 483.894737,607.945466 C480.639324,607.508766 478,604.719118 478,601.712257 C478,598.706534 480.639324,596.621974 483.894737,597.057537" id="Fill-104" fill="#989898"></path>
                <path d="M449.895775,592.057542 C450.27412,592.107585 450.642606,592.194023 451,592.304345 C448.272711,592.416941 446.209683,594.351556 446.209683,597.008382 C446.209683,599.665208 448.272711,602.151433 451,602.994202 C450.642606,603.008988 450.27412,602.996477 449.895775,602.945297 C446.639789,602.509695 444,599.719801 444,596.712674 C444,593.706685 446.639789,591.621941 449.895775,592.057542" id="Fill-105" fill="#989898"></path>
                <path d="M513,397.099239 C513,393.394214 509.613501,389.503997 505.435687,388.408079 L474.193973,380.224441 L367.565484,352.288486 C363.386499,351.19374 360,353.310562 360,357.015586 L360,455.900239 C360,459.606435 363.38767,463.496652 367.565484,464.591399 L497.359828,498.596514 L505.435687,500.710992 C509.613501,501.80691 513,499.690088 513,495.985064 L513,397.099239 Z" id="Fill-106" fill="#121416" opacity="0.200000003"></path>
                <path d="M373.681129,464.292838 L488.318871,480.929425 C492.009165,481.464691 495,478.897288 495,475.194932 L495,376.38035 C495,372.676824 492.009165,369.242688 488.317701,368.707421 L373.681129,352.070834 C369.990835,351.534397 367,354.102971 367,357.805327 L367,456.618737 C367,460.322264 369.992004,463.757572 373.681129,464.292838" id="Fill-107" fill="#CBCBCA"></path>
                <path d="M366.681129,463.292838 L481.318871,479.929425 C485.007996,480.464691 488,477.897288 488,474.194932 L488,375.38035 C488,371.676824 485.007996,368.242688 481.318871,367.707421 L366.681129,351.070834 C362.992004,350.534397 360,353.102971 360,356.805327 L360,455.618737 C360,459.322264 362.992004,462.757572 366.681129,463.292838" id="Fill-108" fill="#F2F1F2"></path>
                <path d="M387,410.696851 C387,430.917453 403.342604,449.68428 423.500584,452.612902 C443.658564,455.542695 460,441.524637 460,421.304035 C460,401.082261 443.658564,382.315435 423.500584,379.386813 C403.342604,376.458191 387,390.476248 387,410.696851" id="Fill-109" fill="#DFDDDD"></path>
                <path d="M423.277774,379.387344 C424.194466,379.520966 425.099554,379.7003 426,379.899561 C407.236834,378.560999 392.444451,392.215026 392.444451,411.537425 C392.444451,430.858652 407.236834,448.844834 426,453 C425.099554,452.935533 424.194466,452.848797 423.277774,452.714003 C403.241684,449.781358 387,430.988757 387,410.740383 C387,390.492009 403.241684,376.4547 423.277774,379.387344" id="Fill-110" fill="#CBCBCA"></path>
                <path d="M438,418.712108 C438,421.718148 440.462326,424.508172 443.499425,424.942479 C446.537674,425.377923 449,423.293932 449,420.289028 C449,417.282988 446.537674,414.492964 443.499425,414.05752 C440.462326,413.622077 438,415.706067 438,418.712108" id="Fill-111" fill="#808080"></path>
                <path d="M404,413.712108 C404,416.718148 406.462584,419.508172 409.5,419.942479 C412.538566,420.377923 415,418.293932 415,415.289028 C415,412.282988 412.538566,409.492964 409.5,409.05752 C406.462584,408.622077 404,410.706067 404,413.712108" id="Fill-112" fill="#808080"></path>
                <path d="M443.894737,414.057536 C444.273015,414.108712 444.641436,414.194005 445,414.304317 C442.273191,414.416904 440.210526,416.351348 440.210526,419.009076 C440.210526,421.66453 442.273191,424.150535 445,424.994367 C444.641436,425.009151 444.273015,424.995504 443.894737,424.945466 C440.639324,424.509903 438,421.719118 438,418.713394 C438,415.706533 440.639324,413.621973 443.894737,414.057536" id="Fill-113" fill="#989898"></path>
                <path d="M409.895775,409.057536 C410.27412,409.108712 410.642606,409.194005 411,409.304317 C408.273944,409.416904 406.209683,411.351348 406.209683,414.009076 C406.209683,416.66453 408.273944,419.150535 411,419.994367 C410.642606,420.009151 410.27412,419.995504 409.895775,419.945466 C406.639789,419.509903 404,416.719118 404,413.713394 C404,410.706533 406.639789,408.621973 409.895775,409.057536" id="Fill-114" fill="#989898"></path>
                <path d="M240,635.882871 C240,635.882871 243.071879,635.249223 244.550589,635.062225 C246.029299,634.874036 246.888316,624.889313 248.590162,624.054374 C250.292008,623.220626 251.253921,632.239394 251.282825,633.004059 C251.295543,633.314928 253.772007,632.792049 256.983779,632.295374 C261.674262,631.570014 267.694312,630.730311 267.933634,631.226986 C268.335973,632.061925 266.777489,633.400685 266.777489,633.400685 C266.777489,633.400685 267.339375,635.163466 265.623655,635.614881 C265.623655,635.614881 265.710366,637.907687 264.231656,638.094684 C264.231656,638.094684 263.685955,640.03017 262.088162,640.350567 C262.088162,640.350567 262.749477,641.471362 260.434874,642.458758 C258.119114,643.444962 252.598519,643.839206 251.465496,643.521191 C245.254682,641.779849 241.1758,644 241.1758,644 L240,635.882871 Z" id="Fill-115" fill="#FDC974"></path>
                <path d="M148.150839,613.389999 C140.257595,610.515587 132.816099,624.244261 137.408659,631.164142 C142.001219,638.084024 181.546051,654.637352 184.524057,654.990289 C187.502064,655.344383 243,645.897241 243,645.897241 L240.214426,633.72149 C240.214426,633.72149 187.94325,637.441794 186.2184,637.50891 C184.49355,637.574869 155.093654,615.919574 148.150839,613.389999" id="Fill-116" fill="#014363"></path>
                <path d="M134.109962,844 L130,861.967352 L136.641443,863.214761 L137.653562,860.969425 C137.653562,860.969425 148.283181,865.461263 166,864.961134 C166,864.961134 160.177949,852.734194 144.73958,846.246502 L134.109962,844 Z" id="Fill-117" fill="#5B4A42"></path>
                <path d="M34.8551986,813 L21,825.278833 L25.7051597,830.034507 L27.8453743,828.780454 C27.8453743,828.780454 33.9205553,838.420333 48.709214,848 C48.709214,848 51.0872304,834.785549 42.2424294,820.814961 L34.8551986,813 Z" id="Fill-118" fill="#5B4A42"></path>
                <path d="M99.6026304,687.374121 C99.6026304,687.374121 78.7437507,759.466369 77.6007983,764.754598 C76.4566798,770.042826 33,813.168334 33,813.168334 L44.8167274,825 C44.8167274,825 88.4763395,788.742534 93.611461,779.965406 C98.7454161,771.18711 128.954346,713.393746 130.872873,703.089349 C132.790233,692.784952 112.584469,677.042869 99.6026304,687.374121" id="Fill-119" fill="#22272D"></path>
                <path d="M103.548634,682 C103.548634,682 92.915789,707.102627 98.7475762,724.521897 C104.579363,741.942335 134.47403,777.291385 137.05144,778.828758 C139.627675,780.364962 132.917947,844.406567 132.917947,844.406567 L149.421364,848 C149.421364,848 161.123723,784.975911 159.911999,773.704962 C158.6991,762.435182 141.484633,724.521897 139.939127,718.374744 C138.392446,712.226423 137.05144,701.981168 137.05144,701.981168 L103.548634,682 Z" id="Fill-120" fill="#323740"></path>
                <polygon id="Fill-121" fill="#036FAD" points="146 608 154 608 148.517601 613"></polygon>
                <polygon id="Fill-122" fill="#036FAD" points="162.152249 621 163 628 159 626.089608"></polygon>
                <path d="M152.470317,598 L144,621.98221 C144,621.98221 151.341556,635.478646 157.553199,629.449121 L168,603.603112 L152.470317,598 Z" id="Fill-123" fill="#FDC974"></path>
                <path d="M150,603.838012 C152.332657,606.217547 159.391919,613.104009 163.705979,614 L168,603.610496 L152.107524,598 L150,603.838012 Z" id="Fill-124" fill="#221E1F" opacity="0.200000003"></path>
                <path d="M193.523693,556.195709 C193.523693,556.195709 199.518542,605.8259 168.972527,606.973913 C138.427678,608.120756 137,571.114023 137,563.081445 C137,555.048867 147.182393,543 165.499987,543 C183.81758,543 193.523693,551.89505 193.523693,556.195709" id="Fill-125" fill="#FDC974"></path>
                <path d="M160.322458,556.92193 C160.322458,556.92193 179.018093,566.968937 198,564.385755 C198,564.385755 197.839266,543.438099 179.161229,537.975478 C156.583331,531.374665 148.530187,543.431073 148.530187,543.431073 C148.530187,543.431073 136.450472,543.717963 131.561566,557.20882 C126.671487,570.700849 133.574852,593.664933 147.955298,604 C147.955298,604 152.844204,593.951823 152.556759,583.331037 C152.556759,583.331037 142.157128,580.226769 143.641281,570.333161 C144.792233,562.663244 153.995155,566.88931 153.995155,572.71025 C153.995155,572.71025 159.747568,568.117668 160.322458,556.92193" id="Fill-126" fill="#603916"></path>
                <path d="M183.458638,583 C183.458638,583 188.991514,593.299548 186.225703,594.477153 C183.458638,595.653558 181,594.477153 181,594.477153 L183.458638,583 Z" id="Fill-127" fill="#F8A36A"></path>
                <path d="M175,576 C175,578.76187 173.432967,581 171.50063,581 C169.567033,581 168,578.76187 168,576 C168,573.239354 169.567033,571 171.50063,571 C173.432967,571 175,573.239354 175,576" id="Fill-128" fill="#414141"></path>
                <path d="M192,576.999419 C192,579.208921 191.104607,581 190,581 C188.895393,581 188,579.208921 188,576.999419 C188,574.791079 188.895393,573 190,573 C191.104607,573 192,574.791079 192,576.999419" id="Fill-129" fill="#414141"></path>
                <path d="M165.008251,593 C165.008251,593 174.611319,597.574248 184,596.572392 C184,596.572392 179.737426,604.579074 172.103358,602.719984 C164.469291,600.862061 165.008251,593 165.008251,593" id="Fill-130" fill="#9A7D46"></path>
                <path d="M173,574.5 C173,575.328877 172.77583,576 172.5,576 C172.223247,576 172,575.328877 172,574.5 C172,573.67246 172.223247,573 172.5,573 C172.77583,573 173,573.67246 173,574.5" id="Fill-131" fill="#FEFEFE"></path>
                <path d="M191,576.5 C191,577.328877 190.77583,578 190.5,578 C190.22417,578 190,577.328877 190,576.5 C190,575.67246 190.22417,575 190.5,575 C190.77583,575 191,575.67246 191,576.5" id="Fill-132" fill="#FEFEFE"></path>
                <path d="M183,596.974376 C176.400817,597.295961 169.948016,595.148188 167.029977,594 C166.93279,594.870719 166.996382,596.33701 168.400208,596.949996 C170.444755,597.842773 178.357775,599.119827 180.072363,598.990961 C181.555379,598.881831 182.444469,598.535865 183,596.974376" id="Fill-133" fill="#FEFEFE"></path>
                <path d="M146.14658,610 C146.14658,610 106.606531,629.671874 94,685.823137 C94,685.823137 115.966174,713.32613 143.376556,716 C143.376556,716 144.809488,672.835937 162,621.459775 L146.14658,610 Z" id="Fill-134" fill="#036FAD"></path>
                <polygon id="Fill-135" fill="#014363" points="145.53532 608 162 621.297174 157.647015 628 140 612.339138"></polygon>
                <path d="M162,622 C162,622 140.586879,690.391587 148.92933,708.194118 L153.65755,715 L157.086871,703.743485 C157.086871,703.743485 152.266763,671.543715 162,622" id="Fill-136" fill="#323740"></path>
                <path d="M338.714957,631.253412 C335.154464,631.975793 332.616209,634.011596 333.04782,635.80551 C333.481822,637.599425 336.721894,638.466283 340.284777,637.747185 C343.847661,637.024803 346.384721,634.989 345.951914,633.195086 C345.516716,631.400077 342.276644,630.533219 338.714957,631.253412" id="Fill-137" fill="#FBD1B9"></path>
                <path d="M70.7315364,779.064988 C96.7639825,812.28619 136.116909,824.254252 164.543547,828.444946 C202.829522,834.089507 235.934333,828.276382 252.650298,821.582977 C263.935363,817.06686 270.496529,811.533504 272.713678,804.673876 C277.111629,791.059972 264.437182,771.115545 252.178964,751.828986 C241.733391,735.391631 230.932558,718.397078 228.261661,702.306217 C224.00558,676.664552 227.756325,656.172291 239.408374,641.398337 C254.723233,621.980673 277.934706,620.086666 278.914894,620.016431 C282.298655,619.770609 285.250945,622.311949 285.510062,625.698451 C285.770352,629.086124 283.223737,632.045363 279.832942,632.318109 C279.645346,632.333327 260.878723,633.999069 249.020318,649.152292 C239.682733,661.082895 236.799619,678.288153 240.450704,700.288128 C242.711234,713.906714 252.828515,729.8255 262.61164,745.219863 C277.030728,767.908142 290.650189,789.336871 284.472423,808.460719 C281.058177,819.02876 272.153235,827.065997 257.24757,833.033639 C241.006457,839.535068 218.664959,843 195.493351,843 C184.576443,843 173.473111,842.229755 162.739109,840.647124 C132.082425,836.129837 89.5485759,823.095372 61,786.666767 L70.7315364,779.064988 Z" id="Fill-138" fill="#E5E5E4"></path>
                <path d="M276,633.55 C278.245294,633.149 279.723133,633.021 279.997571,633 C279.723133,633.022 278.24408,633.15 276,633.55" id="Fill-139" fill="#323232"></path>
                <path d="M276,633 C277.939712,632.527916 279.214679,632.37685 279.451638,632.350885 L279.453735,632.350885 L279.454784,632.350885 C279.474705,632.348525 279.486239,632.347345 279.490433,632.347345 C279.663434,632.333182 279.83329,632.307217 280,632.275352 L278.136828,620 C277.742595,620.047208 277.150197,620.128643 276.394233,620.259646 L276,633" id="Fill-140" fill="#DAD9D9"></path>
                <path d="M381.908866,609.088368 C385.213153,608.519917 388.349345,610.753453 388.912401,614.077704 C389.476634,617.403138 387.256144,620.559222 383.951858,621.126488 L344.042992,628 L342,615.96188 L381.908866,609.088368" id="Fill-141" fill="#DFDDDD"></path>
                <path d="M368.882127,596.085073 C372.19952,595.537106 375.345852,597.693513 375.912121,600.904672 C376.47839,604.116975 374.248706,607.165689 370.932493,607.7148 L339.049186,613 L337,601.370273 L368.882127,596.085073" id="Fill-142" fill="#DFDDDD"></path>
                <path d="M347,615.532734 L350.229531,615 L350.229531,615.001124 L347,615.532734 Z M348.771635,627 L352,626.467266 L348.771635,627 Z" id="Fill-143" fill="#8EB29F"></path>
                <path d="M348.771222,627 L352,626.467266 C351.521922,622.847148 350.930737,618.993257 350.228778,615 L347,615.532734 C347.701959,619.524867 348.293144,623.378758 348.771222,627" id="Fill-144" fill="#D2D2D2"></path>
                <path d="M344,600.537263 L347.540015,600 L344,600.537263 Z M346.611864,612 L349,611.638424 L346.611864,612 Z" id="Fill-145" fill="#8EB29F"></path>
                <path d="M346.547382,612 L348.876559,611.638424 L350,611.462737 C349.195761,607.417399 348.335411,603.562482 347.452618,600 L344,600.537263 C344.882793,604.098612 345.741895,607.953528 346.547382,612" id="Fill-146" fill="#D2D2D2"></path>
                <path d="M280.035982,617.281034 L296.484625,614.482098 C297.882889,614.242823 299.124097,613.451464 299.925783,612.288936 L320.127352,582.954961 C321.823318,580.489843 324.451069,578.814916 327.408168,578.311855 L335.058182,577.009264 C337.78673,576.545887 342.977769,593.523923 346.652166,614.933803 C350.327736,636.342516 351.094261,654.075728 348.365713,654.540272 L340.716871,655.841695 C337.7586,656.345924 334.722974,655.633935 332.300332,653.872635 L303.461878,632.886448 C302.316779,632.054237 300.882182,631.718084 299.48509,631.956192 L283.036447,634.756296 C281.703818,634.982732 280.437997,634.090994 280.209446,632.763892 L278.035281,620.095145 C277.807902,618.766875 278.703353,617.507471 280.035982,617.281034" id="Fill-147" fill="#F2F1F2"></path>
                <polygon id="Fill-148" fill="#8EB29F" points="303 607 303 607 304 605 304 605"></polygon>
                <path d="M229,651.058219 C229,651.058219 232.187927,650.568844 233.71756,650.4465 C235.247193,650.323013 236.521887,640.779054 238.307651,640.043848 C240.093414,639.310929 240.72957,647.998481 240.72957,648.733687 C240.72957,649.032115 243.300401,648.626208 246.62652,648.274041 C251.484653,647.759511 257.715168,647.186667 257.942707,647.671469 C258.325115,648.489 256.668013,649.711294 256.668013,649.711294 C256.668013,649.711294 257.17789,651.425251 255.393318,651.793425 C255.393318,651.793425 255.393318,653.99447 253.862494,654.117957 C253.862494,654.117957 253.225147,655.953114 251.568044,656.197802 C251.568044,656.197802 252.205392,657.298896 249.782281,658.156446 C247.360362,659.012852 241.659977,659.177502 240.506796,658.828765 C234.179786,656.918144 229.892286,658.890509 229.892286,658.890509 L229,651.058219 Z" id="Fill-149" fill="#FDC974"></path>
                <path d="M139.636468,625.484157 C131.873262,622.267928 123.903819,635.862527 128.212545,643.041066 C132.52127,650.219605 171.329095,668.502683 174.285558,668.978207 C177.243193,669.451389 233,662.062027 233,662.062027 L230.702091,649.63984 C230.702091,649.63984 178.392733,651.362736 176.669009,651.362736 C174.945284,651.362736 146.463401,628.312705 139.636468,625.484157" id="Fill-150" fill="#014363"></path>
                <path d="M1102.01785,392 C1102.01785,392 1100.18384,398.674959 1099.15586,400.313359 C1098.12788,401.952948 1102.52133,403 1102.52133,403 L1108,398.644024 L1102.01785,392 Z" id="Fill-151" fill="#FDC974"></path>
                <path d="M1109.31432,389 C1109.31432,389 1110.64133,392.014906 1109.60319,395.643256 C1108.73771,398.668861 1103.70953,402 1103.70953,402 L1102,398.322908 L1106.93677,392.030361 L1109.31432,389 Z" id="Fill-152" fill="#FDC974"></path>
                <path d="M933,419.323641 C933,419.323641 929.808764,418.893972 928.280317,418.804952 C926.750692,418.715933 925.223424,408.76234 923.423935,408.040686 C921.624445,407.319033 921.221416,416.426345 921.24145,417.194289 C921.249699,417.506451 918.674791,417.149185 915.349211,416.867883 C910.49165,416.453644 904.263554,416.015667 904.050255,416.529608 C903.690829,417.393693 905.377187,418.63166 905.377187,418.63166 C905.377187,418.63166 904.914058,420.436981 906.704119,420.775256 C906.704119,420.775256 906.763042,423.080273 908.291488,423.168106 C908.291488,423.168106 908.976167,425.073128 910.635421,425.285589 C910.635421,425.285589 910.029699,426.454714 912.467907,427.287939 C914.906115,428.122351 920.593303,428.147276 921.734041,427.753216 C927.991598,425.588256 932.320036,427.541942 932.320036,427.541942 L933,419.323641 Z" id="Fill-153" fill="#FDC974"></path>
                <path d="M1022.95459,390.548156 C1030.67879,387.129677 1039.04725,400.528025 1034.89985,407.821945 C1030.75245,415.115865 992.194619,434.413998 989.23286,434.963978 C986.2711,435.51512 930,429.559524 930,429.559524 L931.988928,417.069282 C931.988928,417.069282 984.645815,417.443687 986.378672,417.399502 C988.112699,417.355318 1016.16114,393.553861 1022.95459,390.548156" id="Fill-154" fill="#43C1C6"></path>
                <path d="M1039.28937,626 L1042,642.916226 L1035.87297,643.697305 L1035.07956,641.553798 C1035.07956,641.553798 1025.12757,645.116798 1009,643.642617 C1009,643.642617 1015.01335,632.620737 1029.46647,627.478936 L1039.28937,626 Z" id="Fill-155" fill="#5B4A42"></path>
                <path d="M1078.28937,626 L1081,642.916226 L1074.87297,643.697305 L1074.07956,641.553798 C1074.07956,641.553798 1064.12757,645.116798 1048,643.642617 C1048,643.642617 1054.01335,632.620737 1068.46647,627.478936 L1078.28937,626 Z" id="Fill-156" fill="#5B4A42"></path>
                <path d="M1024.04531,467.459176 C1024.04531,467.459176 1021,531.368168 1021,536.998022 C1021,542.627877 1026.70996,624.879336 1027.09181,629 L1042.48967,629 C1042.48967,629 1039.30756,553.411493 1041.00389,542.588007 C1042.70023,531.765694 1043,479.23133 1043,479.23133 L1037.16038,460 L1024.04531,467.459176 Z" id="Fill-157" fill="#22272D"></path>
                <path d="M1031,464.334484 L1044.81634,550.428707 L1062.21138,630 L1080,625.683442 C1080,625.683442 1063.54647,553.367016 1063.15408,543.485851 C1063.15408,543.485851 1073.17844,491.16987 1064.67181,453 L1031,464.334484 Z" id="Fill-158" fill="#323740"></path>
                <polygon id="Fill-159" fill="#43C1C6" points="1043 378 1023 383.792791 1030.65642 392"></polygon>
                <path d="M1034.17605,364 L1043,387.982855 C1043,387.982855 1035.35282,401.479382 1028.88239,395.448524 L1018,369.603319 L1034.17605,364 Z" id="Fill-160" fill="#FDC974"></path>
                <path d="M1036,369.838907 C1033.66671,372.218668 1026.60839,379.105554 1022.29251,380 L1018,369.610933 L1033.89232,364 L1036,369.838907 Z" id="Fill-161" fill="#221E1F" opacity="0.200000003"></path>
                <path d="M993.484752,322.402544 C993.484752,322.402544 987.384312,372.808841 1018.46589,373.97346 C1049.54746,375.139257 1051,337.553195 1051,329.394971 C1051,321.236747 1040.63948,309 1021.9997,309 C1003.3611,309 993.484752,318.034046 993.484752,322.402544" id="Fill-162" fill="#FDC974"></path>
                <path d="M1003.54062,349 C1003.54062,349 998.008896,359.298696 1000.77414,360.477254 C1003.54062,361.653432 1006,360.477254 1006,360.477254 L1003.54062,349 Z" id="Fill-163" fill="#F8A36A"></path>
                <path d="M1012,343 C1012,345.761593 1013.56666,348 1015.49938,348 C1017.43334,348 1019,345.761593 1019,343 C1019,340.238407 1017.43334,338 1015.49938,338 C1013.56666,338 1012,340.238407 1012,343" id="Fill-164" fill="#414141"></path>
                <path d="M995,343 C995,345.209162 995.895458,347 996.999463,347 C998.104542,347 999,345.209162 999,343 C999,340.791991 998.104542,339 996.999463,339 C995.895458,339 995,340.791991 995,343" id="Fill-165" fill="#414141"></path>
                <path d="M1014,341.499337 C1014,342.327883 1014.22415,343 1014.50046,343 C1014.77676,343 1015,342.327883 1015,341.499337 C1015,340.672117 1014.77676,340 1014.50046,340 C1014.22415,340 1014,340.672117 1014,341.499337" id="Fill-166" fill="#FEFEFE"></path>
                <path d="M996,342.500663 C996,343.329209 996.224154,344 996.500457,344 C996.776761,344 997,343.329209 997,342.500663 C997,341.672117 996.776761,341 996.500457,341 C996.224154,341 996,341.672117 996,342.500663" id="Fill-167" fill="#FEFEFE"></path>
                <path d="M1039.03496,370 C1039.03496,370 1034.03618,353.988132 1034.03618,345.731243 C1034.03618,345.731243 1041.0347,346.274198 1041.28423,338.121678 C1041.53376,329.969158 1033.03572,335.723533 1033.03572,335.723533 C1033.03572,335.723533 1031.03715,333.721756 1030.28739,327.218035 C1030.28739,327.218035 998.544524,339.477304 986.79793,327.218035 C975.050164,314.95642 986.915079,301.88096 1000.48218,305.950184 C1000.48218,305.950184 1008.39798,293.305101 1024.53769,295.191954 C1041.65794,297.19373 1041.29009,307.451223 1041.29009,307.451223 C1041.29009,307.451223 1057.78007,306.950486 1059.77981,325.965605 C1061.77956,344.980724 1049.78226,364.747535 1039.03496,370" id="Fill-168" fill="#603916"></path>
                <path d="M1008,368.911659 C1008,368.911659 1017.33604,369.937183 1022,365" id="Stroke-169" stroke="#716558" stroke-width="0.59" stroke-linecap="round"></path>
                <path d="M1044.5913,384 C1044.5913,384 1069.6355,401.34804 1071,472.77669 C1071,472.77669 1058.07332,486.268574 1033.48668,490 L1031.75311,480.050697 L1030.11268,490 C1030.11268,490 1024.47305,486.020279 1020,483.036071 L1021.49141,392.14479 L1030.44449,392.456033 L1044.5913,384 Z" id="Fill-170" fill="#16B7B6"></path>
                <polygon id="Fill-171" fill="#43C1C6" points="1041.5899 379.879333 1031 392.162525 1038.63157 399 1048 383.617397 1043.13956 378"></polygon>
                <polygon id="Fill-172" fill="#43C1C6" points="1031 392.305116 1023.01026 384 1020 391.999428 1026.18114 400"></polygon>
                <path d="M1030.35724,392 C1030.35724,392 1038.90801,443.179078 1025.24796,469.244967 L1018.39002,471 L1016,463.48061 C1016,463.48061 1030.35724,438.918364 1030.35724,392" id="Fill-173" fill="#006FAC"></path>
                <path d="M1047.11687,386.250752 C1053.46775,382.81673 1071.68934,415.766605 1073.28378,417.088367 C1074.87704,418.412453 1096.04238,397.744381 1096.04238,397.744381 L1106,404.743789 C1106,404.743789 1085.36925,435.600003 1076.07345,436.40329 C1073.8919,436.591615 1071.26914,437.864551 1068.48647,435.98944 C1059.40311,429.871207 1047.02933,408.555623 1044.41824,404.505476 C1041.0076,399.21378 1037.81873,391.276236 1047.11687,386.250752" id="Fill-174" fill="#43C1C6"></path>
                <path d="M1109.52557,397.503408 C1110.51701,395.369352 1111.58433,392.014989 1110.62399,390.186305 C1109.66241,388.356437 1107.95321,386.427146 1106.67193,384.700252 C1105.39065,382.972176 1104.42907,384.80086 1105.39065,386.325355 C1105.39065,386.325355 1104.75001,387.442687 1105.81858,388.865391 C1105.81858,388.865391 1105.17669,389.588579 1106.03129,390.750889 C1106.03129,390.750889 1105.06971,391.904913 1106.24525,393.077874 C1107.41955,394.25202 1108.26171,396.386076 1108.19454,397.503408 C1108.12612,398.62074 1109.52557,397.503408 1109.52557,397.503408" id="Fill-175" fill="#FDC974"></path>
                <path d="M1101.88223,388.853221 C1101.88223,388.853221 1104.85939,387.32731 1104.99306,388.356737 C1105.12673,389.387236 1103.30276,391.952225 1101.88223,391.999407 C1100.46171,392.046589 1100.97815,389.263919 1101.88223,388.853221" id="Fill-176" fill="#FDC974"></path>
                <polygon id="Fill-177" fill="#FDC974" points="1104.53837 389 1102 392.401014 1103.78217 396 1107 393.626614 1106.54289 389.266634"></polygon>
                <path d="M986.189741,571.610018 C952.47911,576.599039 929.084913,587.082773 914.366006,581.167821 C904.429196,577.176136 898.651899,572.285444 896.700046,566.221828 C892.826711,554.189414 903.986495,536.562788 914.780672,519.5156 C923.978091,504.988675 933.488554,489.966594 935.841056,475.745192 C939.588239,453.082721 936.286092,434.970303 926.025726,421.912459 C912.540305,404.750554 892.102505,403.077792 891.23813,403.014581 C888.25954,402.796852 885.660574,405.043199 885.431631,408.037549 C885.202689,411.030727 887.444224,413.646978 890.43099,413.888118 C890.596857,413.900995 907.120439,415.373587 917.561858,428.766218 C925.783934,439.310822 928.32216,454.519025 925.107619,473.962395 C923.11722,485.998321 914.208316,500.067548 905.593766,513.675566 C892.897964,533.727638 880.905343,552.667658 886.345066,569.569693 C889.352858,578.908598 897.192974,586.012861 910.317459,591.287504 C924.619364,597.035063 932.853121,591.86226 953.257047,591.86226 C962.869133,591.86226 981.098104,588.245161 990,584.770873" id="Fill-178" fill="#E5E5E4"></path>
                <path d="M894,415 C892.061684,414.601089 890.785291,414.473392 890.549229,414.451921 L890.546856,414.451921 L890.54567,414.451921 C890.525504,414.449661 890.514828,414.449661 890.510083,414.449661 C890.336892,414.4361 890.16726,414.414629 890,414.387508 L891.863582,404 C892.2586,404.039552 892.850534,404.107356 893.606168,404.219232 L894,415" id="Fill-179" fill="#DAD9D9"></path>
                <path d="M800.186663,394.078981 C797.304791,393.570655 794.567941,395.569191 794.076028,398.543617 C793.585274,401.518043 795.521604,404.342609 798.404636,404.850935 L833.217973,411 L835,400.229245 L800.186663,394.078981" id="Fill-180" fill="#DFDDDD"></path>
                <path d="M812.205413,382.075565 C809.314943,381.590152 806.569928,383.494112 806.076547,386.32892 C805.583166,389.161445 807.526436,391.852343 810.418069,392.336614 L838.21382,397 L840,386.738951 L812.205413,382.075565" id="Fill-181" fill="#DFDDDD"></path>
                <path d="M829.583267,410 L827,409.512769 C827.382159,406.19307 827.855107,402.661227 828.416733,399 L831,399.488397 C830.43943,403.148458 829.965426,406.680301 829.583267,410" id="Fill-182" fill="#D2D2D2"></path>
                <path d="M831.876793,396 L829.93581,395.668448 L829,395.508551 C829.670115,391.799166 830.38608,388.264964 831.123207,385 L834,385.491449 C833.265225,388.756413 832.546908,392.291791 831.876793,396" id="Fill-183" fill="#D2D2D2"></path>
                <path d="M890.19004,400.691838 L875.56874,398.21113 C874.326331,398.000504 873.223014,397.299587 872.509866,396.267519 L854.553863,370.276253 C853.045055,368.092762 850.709937,366.607848 848.080131,366.162022 L841.281061,365.008259 C838.856358,364.596368 834.241525,379.642095 830.97519,398.61249 C827.708855,417.582884 827.027533,433.294424 829.452236,433.706315 L836.251306,434.860078 C838.881112,435.305904 841.579287,434.676366 843.732876,433.114222 L869.367301,414.519444 C870.384568,413.782252 871.659983,413.485036 872.902392,413.694492 L887.522514,416.175199 C888.708343,416.376464 889.832877,415.586616 890.035623,414.41062 L891.968784,403.185417 C892.170352,402.009421 891.374691,400.893103 890.19004,400.691838" id="Fill-184" fill="#F2F1F2"></path>
                <path d="M887.597323,685.636266 C887.597323,685.636266 883.547412,685.593124 881.62544,685.719053 C879.703468,685.844982 876.280715,673.647341 873.923667,673.024691 C871.567776,672.399709 872.451813,683.838277 872.592982,684.794406 C872.650838,685.182688 869.383138,685.134881 865.18743,685.296957 C859.060494,685.531325 851.218709,685.947591 851.030099,686.621545 C850.713049,687.75724 853.005298,689.042184 853.005298,689.042184 C853.005298,689.042184 852.70329,691.369542 854.988597,691.515293 C854.988597,691.515293 855.414417,694.384847 857.336389,694.258917 C857.336389,694.258917 858.480778,696.531473 860.584417,696.541967 C860.584417,696.541967 860.005858,698.095094 863.177517,698.758554 C866.348019,699.42318 873.45272,698.57549 874.816961,697.905034 C882.298883,694.236763 888,696.006768 888,696.006768 L887.597323,685.636266 Z" id="Fill-185" fill="#FDC974"></path>
                <path d="M999.26467,635.167649 C1008.56578,629.551701 1021.33431,645.482582 1017.19918,655.523251 C1013.06405,665.56392 966.98723,696.466344 963.300756,697.639913 C959.614282,698.81466 887,700 887,700 L887.56697,683.61005 C887.56697,683.61005 954.700155,675.810581 956.901262,675.480993 C959.10237,675.151405 991.08461,640.104409 999.26467,635.167649" id="Fill-186" fill="#B63129"></path>
                <path d="M789.724312,664.254052 C793.011701,664.976789 795.354451,667.012461 794.955806,668.806842 C794.554877,670.601224 791.564473,671.466696 788.2748,670.746224 C784.986269,670.025753 782.644662,667.988949 783.044449,666.196833 C783.445377,664.400185 786.436924,663.532448 789.724312,664.254052" id="Fill-187" fill="#FBD1B9"></path>
                <path d="M818,675.995 L811,675.005 L818,675.995 Z" id="Fill-188" fill="#769586"></path>
                <path d="M1048.61489,807.358863 C1023.50836,839.387818 985.5548,850.927353 958.137979,854.966599 C921.214334,860.408718 889.28578,854.804235 873.16409,848.35172 C862.280925,843.99709 855.952796,838.662436 853.814551,832.048725 C849.573171,818.922928 861.796396,799.693874 873.618189,781.10026 C883.692636,765.252819 894.109998,748.866889 896.685958,733.353521 C900.790406,708.630953 897.173997,688.873924 885.935043,674.630266 C871.165117,655.908163 848.778497,654.08361 847.832848,654.015861 C844.569888,653.778739 841.722405,656.228219 841.471948,659.493023 C841.221492,662.758995 843.676904,665.612632 846.948056,665.875452 C847.129462,665.890637 865.229058,667.496757 876.665803,682.106025 C885.670542,693.608181 888.451314,710.197358 884.929705,731.408656 C882.749327,744.53679 872.992047,759.884289 863.556616,774.727175 C849.650414,796.601947 836.514309,817.263075 842.473775,835.700166 C845.767165,845.888224 854.355256,853.637315 868.729601,859.390145 C884.394851,865.660438 905.941154,869 928.289152,869 C938.817698,869 949.52648,868.258265 959.878302,866.731574 C989.445072,862.376945 1030.46731,849.809493 1058,814.687443" id="Fill-189" fill="#E5E5E4"></path>
                <path d="M851,666.531 C848.755577,666.146 847.276469,666.021 847.002513,666 C847.276469,666.021 848.75432,666.145 851,666.53 L851,666.531" id="Fill-190" fill="#323232"></path>
                <path d="M851,666 C849.06077,665.564743 847.785676,665.42492 847.549105,665.402368 L847.545849,665.402368 C847.525231,665.400113 847.514379,665.398985 847.510038,665.398985 C847.337493,665.384326 847.167119,665.361774 847,665.331329 L848.864352,654 C849.258275,654.043977 849.850787,654.118399 850.606077,654.24018 L851,666" id="Fill-191" fill="#DAD9D9"></path>
                <path d="M748.789877,643.083468 C745.626181,642.545856 742.624398,644.66147 742.083914,647.810507 C741.54343,650.959543 743.670421,653.949502 746.834117,654.488275 L785.04424,661 L787,649.594032 L748.789877,643.083468" id="Fill-192" fill="#DFDDDD"></path>
                <path d="M761.753426,630.085112 C758.607254,629.536912 755.620939,631.694193 755.083448,634.905251 C754.545958,638.11631 756.661168,641.165157 759.808498,641.714542 L790.056231,647 L792,635.370571 L761.753426,630.085112" id="Fill-193" fill="#DFDDDD"></path>
                <path d="M782,648.532816 L778.770884,648.001163 L778.770884,648 L782,648.532816 Z M780.229116,660 L777,659.468347 L780.229116,660 Z" id="Fill-194" fill="#8EB29F"></path>
                <path d="M780.228689,660 L777,659.468347 C777.476938,655.846825 778.068582,651.992632 778.770104,648 L782,648.532816 C781.299686,652.524285 780.706834,656.379641 780.228689,660" id="Fill-195" fill="#D2D2D2"></path>
                <path d="M785,633.536175 L782.168563,633 L785,633.536175 Z M782.910558,645 L781,644.638639 L782.910558,645 Z" id="Fill-196" fill="#8EB29F"></path>
                <path d="M782.877419,645 L780.936559,644.637501 L780,644.462704 C780.670968,640.416561 781.387097,636.561638 782.123656,633 L785,633.537296 C784.264516,637.098934 783.547312,640.953857 782.877419,645" id="Fill-197" fill="#D2D2D2"></path>
                <path d="M847.020711,650.26108 L831.028333,647.531716 C829.670868,647.299755 828.463184,646.528515 827.683614,645.393439 L808.043417,616.803402 C806.393466,614.401373 803.838931,612.768228 800.963605,612.277225 L793.527621,611.009095 C790.874019,610.555771 785.827456,627.105047 782.253938,647.973265 C778.681599,668.839129 777.936232,686.12432 780.588655,686.577645 L788.024639,687.845775 C790.901144,688.336778 793.85313,687.644428 796.208349,685.925329 L824.245725,665.471578 C825.359058,664.660304 826.754264,664.331792 828.111729,664.563752 L844.104107,667.294294 C845.399065,667.51448 846.629157,666.645511 846.85206,665.351477 L848.965507,653.004575 C849.18723,651.709363 848.316849,650.481266 847.020711,650.26108" id="Fill-198" fill="#F2F1F2"></path>
                <polygon id="Fill-199" fill="#8EB29F" points="824 641 824 641 823 639 823.000864 639"></polygon>
                <path d="M1058.28059,825 L1060,848.667426 L1051.38077,849 L1050.53742,845.947527 C1050.53742,845.947527 1036.25769,849.657009 1014,845.66728 C1014,845.66728 1023.70321,831.190998 1044.43422,825.847715 L1058.28059,825 Z" id="Fill-200" fill="#22272D"></path>
                <path d="M1035.91678,826 L1038,849.536858 L1029.3952,850 L1028.50473,846.973369 C1028.50473,846.973369 1014.29684,850.884601 992,847.252412 C992,847.252412 1001.46959,832.692397 1022.09753,827.055963 L1035.91678,826 Z" id="Fill-201" fill="#323740"></path>
                <path d="M966,648 C966,648 997.338724,682.144352 978.118749,726.704432 L981.944263,736 L992.360473,727.985285 C992.360473,727.985285 1007.32295,674.235202 966,648" id="Fill-202" fill="#483B33"></path>
                <path d="M1028.51571,756.000494 C1028.00272,763.239762 1062,828 1062,828 L1043.00162,828 C1043.00162,828 1003.50463,772.680561 1004.00471,764.233776 C1004.50479,755.786991 1028.51571,756.000494 1028.51571,756.000494" id="Fill-203" fill="#5F554B"></path>
                <path d="M1017.88517,708.978055 C1017.88517,708.978055 979.540043,749.013583 978.039213,758.500959 C976.539559,767.989507 1018.55221,828 1018.55221,828 L1037.55684,828 C1037.55684,828 1013.55062,773.982582 1013.55062,766.741878 C1013.55062,759.5 1091.46104,731.221969 1068.90045,691 L1017.88517,708.978055 Z" id="Fill-204" fill="#716558"></path>
                <polygon id="Fill-205" fill="#F27921" points="968.154559 627 962 650.008943 971 659 971 647.011142"></polygon>
                <path d="M949.561254,623 L981.557883,631.164311 C981.557883,631.164311 990.5505,648.69272 979.465647,651 L944,643.608628 L949.561254,623 Z" id="Fill-206" fill="#FDC974"></path>
                <path d="M944,643.672935 L959.812295,647 C962.348527,643.319977 966.93712,635.915955 969,628.01895 L949.523609,623 L944,643.672935 Z" id="Fill-207" fill="#221E1F" opacity="0.200000003"></path>
                <path d="M887.170209,592.61744 C887.170209,592.61744 897.541384,656.667455 936.045833,647.007738 C974.550281,637.349197 963.021421,590.693494 960.133646,580.679799 C957.244701,570.664928 940.214202,559.339986 917.370695,565.990302 C894.528359,572.641795 885.623898,587.256027 887.170209,592.61744" id="Fill-208" fill="#FDC974"></path>
                <path d="M910.044525,622 C910.044525,622 907.213051,636.429192 910.873827,636.928215 C914.534603,637.427238 917,635.16099 917,635.16099 L910.044525,622 Z" id="Fill-209" fill="#F8A36A"></path>
                <path d="M918.361225,611.160616 C919.335004,614.410809 921.977775,616.526511 924.263934,615.88553 C926.548892,615.24571 927.612724,612.090736 926.638946,608.840543 C925.663966,605.589189 923.021195,603.473487 920.736237,604.114468 C918.450078,604.754288 917.387446,607.909262 918.361225,611.160616" id="Fill-210" fill="#414141"></path>
                <path d="M896.361845,617.767386 C897.150261,620.495067 898.969151,622.364419 900.426107,621.939882 C901.884216,621.515345 902.425964,618.96118 901.6387,616.233499 C900.851437,613.504661 899.031394,611.636466 897.573286,612.059846 C896.116329,612.484383 895.573429,615.039705 896.361845,617.767386" id="Fill-211" fill="#414141"></path>
                <path d="M919.142879,608.707953 C919.427148,609.52853 920.041575,610.100479 920.514506,609.985236 C920.987437,609.871059 921.141681,609.112372 920.857413,608.291796 C920.574419,607.472286 919.959991,606.900337 919.485786,607.014513 C919.01158,607.129757 918.858611,607.887376 919.142879,608.707953" id="Fill-212" fill="#FEFEFE"></path>
                <path d="M897.142608,616.707941 C897.426918,617.529578 898.041435,618.100457 898.514435,617.985214 C898.987435,617.871038 899.141702,617.112357 898.857392,616.291786 C898.574357,615.472283 897.95984,614.900337 897.485565,615.014513 C897.012565,615.129756 896.858298,615.88737 897.142608,616.707941" id="Fill-213" fill="#FEFEFE"></path>
                <path d="M920.914679,642 C919.51831,642 918.580344,641.916459 918.454577,641.904524 C918.178359,641.878268 917.977367,641.630031 918.00205,641.349571 C918.03026,641.070305 918.27004,640.851904 918.548609,640.891288 C918.649693,640.907996 928.653479,641.798307 933.458493,637.414777 C935.111099,635.90626 935.967962,633.916784 935.998522,631.502441 C936.002048,631.221981 936.225373,631 936.49924,631 L936.505117,631 C936.78251,631.00358 937.003485,631.233916 936.999958,631.514376 C936.964697,634.225887 935.997347,636.465987 934.124942,638.171422 C930.484744,641.492785 924.330376,642 920.914679,642" id="Fill-214" fill="#59595B"></path>
                <path d="M891.54488,610.231762 C891.54488,610.231762 877.346146,602.085808 874,590.20227 L877.178839,592.018166 L874,585.252153 C874,585.252153 882.029572,589.0467 886.211076,580.465954 C890.392581,571.884045 899.253976,562.805729 915.314299,558.349693 C931.3758,553.893657 944.758027,561.599007 946.25908,565.165696 C946.25908,565.165696 960.655755,565.777195 964.496754,581.45528 C968.337753,597.134528 969.047041,621.85024 957.151728,634 C957.151728,634 953.618245,617.6116 949.269433,607.538145 C949.269433,607.538145 953.450938,601.260401 948.767511,593.338817 C944.084085,585.416072 939.23453,596.690435 939.23453,596.690435 L932.668308,580.218332 C932.668308,580.218332 915.732567,602.992593 890.267689,602.374119 L891.54488,610.231762 Z" id="Fill-215" fill="#603916"></path>
                <path d="M968.506855,627.175628 C968.506855,627.175628 1058.46627,620.26366 1073,693.163026 C1073,693.163026 1063.47794,706.056593 1013.36242,713 C1013.36242,713 1026.64529,672.708912 964,649.769937 L968.506855,627.175628 Z" id="Fill-216" fill="#B63129"></path>
                <polygon id="Fill-217" fill="#CD4746" points="968.496361 627.456514 964 650.048201 979 656 979 626"></polygon>
                <path d="M874,664.549694 C874,664.549694 869.933111,663.90554 867.980863,663.744793 C866.028615,663.584045 864.40233,651.02362 862.124119,650.057971 C859.847085,649.091157 859.033943,660.524022 859.033943,661.490835 C859.033943,661.883385 855.753131,661.34989 851.509728,660.886285 C845.3129,660.208351 837.362697,659.455867 837.073213,660.094197 C836.584857,661.169341 838.699498,662.777979 838.699498,662.777979 C838.699498,662.777979 838.048749,665.033101 840.325783,665.516508 C840.325783,665.516508 840.325783,668.41462 842.278031,668.575367 C842.278031,668.575367 843.091173,670.991237 845.205814,671.313896 C845.205814,671.313896 844.392672,672.762952 847.484025,673.890513 C850.574202,675.01691 857.84659,675.233569 859.318719,674.774624 C867.391305,672.260908 872.860895,674.856162 872.860895,674.856162 L874,664.549694 Z" id="Fill-218" fill="#FDC974"></path>
                <path d="M990.668379,630.627236 C1000.7018,626.460487 1011.00139,644.073138 1005.433,653.37226 C999.863434,662.671383 949.706886,686.357362 945.88558,686.971743 C942.063102,687.584949 870,678.014465 870,678.014465 L872.970042,661.920734 C872.970042,661.920734 940.577494,664.151536 942.805319,664.151536 C945.033144,664.151536 981.84502,634.291203 990.668379,630.627236" id="Fill-219" fill="#CD4746"></path>
                <polygon id="Fill-220" fill="#FCBF10" points="432 119 474.072608 183.464458 461.341288 189.275862 483.649327 231.464246 472.455729 236.936136 496 295 441.409094 227.232574 456.767697 223.61926 434.299018 176.034822 450.907821 175.057116"></polygon>
                <polygon id="Fill-221" fill="#FCBF10" points="559.938126 83 584 156.341105 570.155254 158.653731 580.83839 205.290905 568.571529 207.67602 576.335986 270 541 190.207394 556.820898 190.705462 547.381617 138.803498 563.730423 142.176564"></polygon>
                <polygon id="Fill-222" fill="#FCBF10" points="688.450514 116 689 193.154792 675.183845 191.1296 671.1597 238.780628 658.817749 237.305849 647.271566 299 638 212.259143 652.833808 217.564609 659.633266 165.280063 674.095328 173.483668"></polygon>
            </g>
        </g>
    </g>
</svg>